<svg xmlns="http://www.w3.org/2000/svg" viewBox="0 0 471.25 446.37"><defs><style>.cls-1{fill:#ebebeb;}.cls-2{fill:#fff;}.cls-3{fill:#dbdbdb;}.cls-4{fill:#c7c7c7;}.cls-5{fill:#263238;}.cls-13,.cls-14,.cls-15,.cls-16,.cls-6{fill:#ffc727;}.cls-7{fill:#37474f;}.cls-8{fill:#a6a6a6;}.cls-9{fill:#455a64;}.cls-10{fill:#d3766a;}.cls-11{fill:#ff9cbd;}.cls-12,.cls-22{opacity:0.1;}.cls-13,.cls-18{opacity:0.8;}.cls-14,.cls-19{opacity:0.6;}.cls-15,.cls-20{opacity:0.4;}.cls-16,.cls-17,.cls-21{opacity:0.2;}</style></defs><title>4738058</title><g id="Background_Complete" data-name="Background Complete"><polygon class="cls-1" points="442.3 119.84 440.62 119.84 440.62 118.71 441.18 118.71 441.18 118.15 442.3 118.15 442.3 119.84"/><path class="cls-1" d="M450.08,149.74H447.8v-1.12h2.28Zm-4.56,0h-2.28v-1.12h2.28Zm-4.56,0h-2.28v-1.12H441Zm-4.56,0h-2.28v-1.12h2.28Zm-4.56,0h-2.28v-1.12h2.28Zm-4.56,0H425v-1.12h2.28Zm-4.55,0h-2.28v-1.12h2.28Zm-4.56,0h-2.28v-1.12h2.28Zm-4.56,0h-2.28v-1.12h2.28Zm-4.56,0h-2.28v-1.12h2.28Zm-4.56,0h-2.28v-1.12h2.28Zm-4.56,0h-2.28v-1.12h2.28Zm-4.56,0h-2.28v-1.12h2.28Z" transform="translate(-11.75 -29.91)"/><polygon class="cls-1" points="379.07 119.84 377.38 119.84 377.38 118.15 378.5 118.15 378.5 118.71 379.07 118.71 379.07 119.84"/><path class="cls-1" d="M390.25,145.77h-1.13V143.5h1.13Zm0-4.55h-1.13v-2.28h1.13Zm0-4.56h-1.13v-2.28h1.13Zm0-4.56h-1.13v-2.28h1.13Zm0-4.56h-1.13v-2.28h1.13Zm0-4.56h-1.13V120.7h1.13Zm0-4.56h-1.13v-2.28h1.13Zm0-4.56h-1.13v-2.28h1.13Zm0-4.56h-1.13V107h1.13Zm0-4.56h-1.13v-2.28h1.13Zm0-4.56h-1.13V97.9h1.13Zm0-4.56h-1.13V93.34h1.13Zm0-4.56h-1.13V88.78h1.13Z" transform="translate(-11.75 -29.91)"/><polygon class="cls-1" points="378.5 56.6 377.38 56.6 377.38 54.91 379.07 54.91 379.07 56.04 378.5 56.04 378.5 56.6"/><path class="cls-1" d="M450.08,85.94H447.8V84.82h2.28Zm-4.56,0h-2.28V84.82h2.28Zm-4.56,0h-2.28V84.82H441Zm-4.56,0h-2.28V84.82h2.28Zm-4.56,0h-2.28V84.82h2.28Zm-4.56,0H425V84.82h2.28Zm-4.55,0h-2.28V84.82h2.28Zm-4.56,0h-2.28V84.82h2.28Zm-4.56,0h-2.28V84.82h2.28Zm-4.56,0h-2.28V84.82h2.28Zm-4.56,0h-2.28V84.82h2.28Zm-4.56,0h-2.28V84.82h2.28Zm-4.56,0h-2.28V84.82h2.28Z" transform="translate(-11.75 -29.91)"/><polygon class="cls-1" points="442.3 56.6 441.18 56.6 441.18 56.04 440.62 56.04 440.62 54.91 442.3 54.91 442.3 56.6"/><path class="cls-1" d="M454.05,145.77h-1.13V143.5h1.13Zm0-4.55h-1.13v-2.28h1.13Zm0-4.56h-1.13v-2.28h1.13Zm0-4.56h-1.13v-2.28h1.13Zm0-4.56h-1.13v-2.28h1.13Zm0-4.56h-1.13V120.7h1.13Zm0-4.56h-1.13v-2.28h1.13Zm0-4.56h-1.13v-2.28h1.13Zm0-4.56h-1.13V107h1.13Zm0-4.56h-1.13v-2.28h1.13Zm0-4.56h-1.13V97.9h1.13Zm0-4.56h-1.13V93.34h1.13Zm0-4.56h-1.13V88.78h1.13Z" transform="translate(-11.75 -29.91)"/><rect class="cls-2" x="373.96" y="115.3" width="7.95" height="7.95"/><path class="cls-1" d="M394.22,153.72h-9.07v-9.08h9.07Zm-8-1.13h6.83v-6.82h-6.83Z" transform="translate(-11.75 -29.91)"/><rect class="cls-2" x="373.96" y="83.4" width="7.95" height="7.95"/><path class="cls-1" d="M394.22,121.82h-9.07v-9.08h9.07Zm-8-1.13h6.83v-6.82h-6.83Z" transform="translate(-11.75 -29.91)"/><rect class="cls-2" x="373.96" y="51.5" width="7.95" height="7.95"/><path class="cls-1" d="M394.22,89.92h-9.07V80.84h9.07Zm-8-1.13h6.83V82h-6.83Z" transform="translate(-11.75 -29.91)"/><rect class="cls-2" x="437.77" y="115.3" width="7.95" height="7.95"/><path class="cls-1" d="M458,153.72H449v-9.08H458Zm-8-1.13h6.83v-6.82h-6.83Z" transform="translate(-11.75 -29.91)"/><rect class="cls-2" x="437.77" y="83.4" width="7.95" height="7.95"/><path class="cls-1" d="M458,121.82H449v-9.08H458Zm-8-1.13h6.83v-6.82h-6.83Z" transform="translate(-11.75 -29.91)"/><rect class="cls-2" x="437.77" y="51.5" width="7.95" height="7.95"/><path class="cls-1" d="M458,89.92H449V80.84H458Zm-8-1.13h6.83V82h-6.83Z" transform="translate(-11.75 -29.91)"/><rect class="cls-2" x="405.86" y="51.5" width="7.95" height="7.95"/><path class="cls-1" d="M426.12,89.92h-9.07V80.84h9.07Zm-7.95-1.13H425V82h-6.83Z" transform="translate(-11.75 -29.91)"/><rect class="cls-2" x="405.86" y="115.3" width="7.95" height="7.95"/><path class="cls-1" d="M426.12,153.72h-9.07v-9.08h9.07Zm-7.95-1.13H425v-6.82h-6.83Z" transform="translate(-11.75 -29.91)"/><path class="cls-3" d="M422.36,124.87H409.63l-4.95,13.88h4.82V140h-9.84v-1.23h3l16.4-44.17h5.27l16.2,44.17h3V140h-21v-1.23h4.56Zm-12.16-1.42h11.64l-5.59-16.84Z" transform="translate(-11.75 -29.91)"/><path class="cls-1" d="M99.36,56.54s-.23,12.53-8.25,26.75H79.81c-8-14.22-8.25-26.75-8.25-26.75,11.61-6.49,11.91-21,11.91-21h1.18v23a3.54,3.54,0,1,0,1.62,0v-23h1.17S87.75,50.05,99.36,56.54Z" transform="translate(-11.75 -29.91)"/><rect class="cls-4" x="65.36" y="52" width="16.7" height="7.03"/><path class="cls-1" d="M124.24,73.13h-1.13a37.65,37.65,0,1,0-75.3,0H46.68a38.78,38.78,0,0,1,77.56,0Z" transform="translate(-11.75 -29.91)"/><rect class="cls-1" x="34.62" y="3.98" width="77.3" height="1.13"/><rect class="cls-2" x="31.52" y="39.24" width="7.95" height="7.95"/><path class="cls-1" d="M51.78,77.66H42.7V68.59h9.08Zm-8-1.12h6.83V69.71H43.83Z" transform="translate(-11.75 -29.91)"/><rect class="cls-2" x="31.52" y="0.56" width="7.95" height="7.95"/><path class="cls-1" d="M51.78,39H42.7V29.91h9.08Zm-8-1.12h6.83V31H43.83Z" transform="translate(-11.75 -29.91)"/><rect class="cls-2" x="107.95" y="39.24" width="7.95" height="7.95"/><path class="cls-1" d="M128.21,77.66h-9.07V68.59h9.07Zm-8-1.12h6.83V69.71h-6.83Z" transform="translate(-11.75 -29.91)"/><rect class="cls-2" x="107.95" y="0.56" width="7.95" height="7.95"/><path class="cls-1" d="M128.21,39h-9.07V29.91h9.07Zm-8-1.12h6.83V31h-6.83Z" transform="translate(-11.75 -29.91)"/><path class="cls-1" d="M436,343l15-.28,7.41-.11c2.47-.05,4.93,0,7.39-.06l-.45.45,0-12.61.5.5-14.92-.06c-5,0-9.94-.11-14.91-.16l.27-.28c0,2.07-.09,4.15-.13,6.25Zm0,0-.15-6.24c0-2.11-.11-4.23-.13-6.37v-.27H436c5-.05,9.94-.16,14.91-.16l14.92-.07h.5v.5L466.29,343v.45h-.44c-2.51,0-5,0-7.53-.06l-7.5-.11Z" transform="translate(-11.75 -29.91)"/><path class="cls-1" d="M452.66,358.89l15-.28,7.42-.12c2.46,0,4.92,0,7.38-.05l-.45.45L482,346.28l.5.5-14.92-.06c-5,0-9.94-.12-14.91-.17l.27-.27c0,2.07-.09,4.14-.13,6.24Zm0,0-.14-6.25c0-2.1-.12-4.23-.14-6.36V346h.28c5-.05,9.94-.16,14.91-.17l14.92-.06h.5v.5l-.05,12.61v.44h-.44c-2.51,0-5,0-7.53-.05l-7.5-.12Z" transform="translate(-11.75 -29.91)"/><path class="cls-1" d="M419.37,358.89l15-.28,7.41-.12c2.47,0,4.93,0,7.39-.05l-.45.45-.05-12.61.5.5-14.92-.06c-5,0-9.94-.12-14.92-.17l.28-.27c0,2.07-.09,4.14-.13,6.24Zm0,0-.14-6.25c0-2.1-.11-4.23-.13-6.36V346h.27c5-.05,9.95-.16,14.92-.17l14.92-.06h.5v.5l-.06,12.61v.44h-.44c-2.51,0-5,0-7.54-.05l-7.5-.12Z" transform="translate(-11.75 -29.91)"/><path class="cls-1" d="M34.88,358.89l15-.28,7.42-.12c2.47,0,4.92,0,7.38-.05l-.44.45-.06-12.61.5.5-14.91-.06c-5,0-9.95-.12-14.92-.17l.27-.27c0,2.07-.08,4.14-.13,6.24Zm0,0-.14-6.25c-.05-2.1-.11-4.23-.13-6.36V346h.27c5-.05,9.95-.16,14.92-.17l14.91-.06h.51v.5l0,12.61v.44h-.45c-2.51,0-5,0-7.53-.05l-7.5-.12Z" transform="translate(-11.75 -29.91)"/><path class="cls-1" d="M34.88,64.59l15-.28,7.42-.11c2.47,0,4.92,0,7.38-.06l-.44.45L64.21,52l.5.5L49.8,52.42c-5,0-9.95-.12-14.92-.17l.27-.27c0,2.07-.08,4.15-.13,6.24Zm0,0-.14-6.25c-.05-2.1-.11-4.23-.13-6.36v-.27h.27c5-.05,9.95-.16,14.92-.17l14.91-.06h.51V52l0,12.61V65h-.45c-2.51,0-5,0-7.53,0l-7.5-.12Z" transform="translate(-11.75 -29.91)"/><path class="cls-1" d="M18.24,80.48l15-.28,7.42-.11c2.47,0,4.92,0,7.38,0l-.44.44-.06-12.6.5.5-14.91-.07c-5,0-9.95-.11-14.92-.16l.27-.27c0,2.06-.08,4.14-.13,6.24Zm0,0-.14-6.24C18.05,72.13,18,70,18,67.88v-.27h.27c5,0,9.94-.16,14.92-.16l14.91-.06h.5v.51l0,12.6v.45h-.45c-2.51,0-5,0-7.53-.06L33,80.76Z" transform="translate(-11.75 -29.91)"/><path class="cls-1" d="M452.66,64.6l15-.28,7.42-.11c2.46,0,4.92,0,7.38-.06l-.45.45L482,52l.5.5-14.92-.06c-5,0-9.94-.11-14.91-.16l.27-.28c0,2.07-.09,4.15-.13,6.25Zm0,0-.14-6.24c0-2.11-.12-4.23-.14-6.37v-.27h.28c5,0,9.94-.16,14.91-.16l14.92-.07h.5V52l-.05,12.61v.45h-.44c-2.51,0-5,0-7.53-.06l-7.5-.11Z" transform="translate(-11.75 -29.91)"/><path class="cls-1" d="M187,274.62l-15,.27-7.41.12c-2.47,0-4.93,0-7.39.05l.45-.44,0,12.6-.5-.5,14.92.06c5,0,9.94.12,14.92.17l-.28.27c0-2.07.09-4.14.13-6.24Zm0,0,.14,6.24c0,2.1.11,4.23.13,6.36v.27H187c-5,.06-9.95.16-14.92.17l-14.92.06h-.5v-.5l.06-12.6v-.45h.44c2.51,0,5,0,7.54.05l7.5.12Z" transform="translate(-11.75 -29.91)"/><path class="cls-1" d="M170.39,258.72l-15,.28-7.41.11c-2.47.05-4.93,0-7.39.06l.45-.45.05,12.61-.5-.5,14.92.06c5,0,9.94.11,14.91.16l-.27.28c0-2.07.09-4.15.13-6.25Zm0,0,.15,6.24c0,2.11.11,4.23.13,6.37v.27h-.28c-5,0-9.94.16-14.91.16l-14.92.07h-.5v-.5l.06-12.61v-.45h.44c2.51,0,5,0,7.53.06l7.5.11Z" transform="translate(-11.75 -29.91)"/></g><g id="Floor"><polygon class="cls-5" points="6.94 375.43 64.86 375.18 122.78 375.1 238.62 374.93 354.46 375.09 412.38 375.18 470.3 375.43 412.38 375.67 354.46 375.76 238.62 375.93 122.78 375.76 64.86 375.67 6.94 375.43"/></g><g id="Plant"><path class="cls-5" d="M93.41,293.13c-3.55-3.48-8.13-7.68-13.56-6.18-5.11,1.41-7.06,7-8,11.63-1.17,6-2.09,12-3,18.05S67,328.8,66.09,334.9q-.74,5.16-1.46,10.32l-.72,5.17c-.23,1.69-.52,3.37-.61,5.08,0,.54.82.62.94.1.66-2.87.93-5.86,1.35-8.77s.85-5.86,1.28-8.79q1.27-8.73,2.61-17.45t2.71-17.45c.79-4.92,1.16-11.05,5.53-14.3a8.44,8.44,0,0,1,8.17-.76c2.87,1.09,5.17,3.15,7.42,5.19A.07.07,0,0,0,93.41,293.13Z" transform="translate(-11.75 -29.91)"/><path class="cls-6" d="M88.55,289.58S81.3,287,77.72,292.26s.7,18.76,33.74,26.36a93.36,93.36,0,0,0-7.95-29.86C96.42,273.31,83.8,279.16,88.55,289.58Z" transform="translate(-11.75 -29.91)"/><path class="cls-5" d="M109.56,316.42a25.52,25.52,0,0,0-1.67-2.68c-.55-.85-1.11-1.7-1.67-2.54l-1.29-1.9c0-.15,0-.31.06-.47s.07-.57.11-.86c.08-.62.17-1.23.26-1.85s.2-1.23.31-1.84a9.69,9.69,0,0,1,.44-1.95c0-.1-.13-.14-.15,0a6.73,6.73,0,0,1-.29,1.09c-.08.28-.15.56-.22.84-.16.62-.32,1.25-.46,1.88s-.24,1.17-.34,1.76c-.05.28-.09.56-.13.85q-.87-1.28-1.8-2.49-2.64-3.47-5.53-6.71s0,0,0-.06c.17-3.47.08-6.9.85-10.32,0-.09-.12-.14-.14-.05A35.46,35.46,0,0,0,96.7,299c-.69-.77-1.39-1.54-2.09-2.29-1.61-1.73-3.25-3.44-4.92-5.1-.07-.07-.18,0-.11.1,2.78,3,5.43,6.12,8,9.29a58.07,58.07,0,0,0-6,.23c-2.24.16-4.46.45-6.69.76-.09,0-.06.16,0,.14a65,65,0,0,1,6.68-.6c2.16-.09,4.3,0,6.45,0q2.08,2.58,4.13,5.21h-.31c-.51,0-1,0-1.52,0-1,0-2,.08-3,.17a44.88,44.88,0,0,0-6.1.91c-.09,0-.06.16,0,.15,2-.23,4.06-.42,6.11-.49,1,0,1.94,0,2.92,0h1.52a1.89,1.89,0,0,0,.83-.08q1.33,1.73,2.66,3.47,1,1.38,2.07,2.79c.7,1,1.32,2,2.1,2.9C109.49,316.57,109.59,316.49,109.56,316.42Z" transform="translate(-11.75 -29.91)"/><path class="cls-5" d="M91.71,297.08a21.86,21.86,0,0,0-3.53-.17c-1.18,0-2.36,0-3.54.07a.08.08,0,1,0,0,.15c1.2-.08,2.39-.11,3.59-.09s2.32.13,3.47.1C91.75,297.14,91.75,297.09,91.71,297.08Z" transform="translate(-11.75 -29.91)"/><path class="cls-5" d="M102.08,299.74c.14-1.13.28-2.26.52-3.37,0-.11-.13-.14-.14,0-.17,1.11-.39,2.21-.55,3.32-.09.56-.16,1.12-.23,1.67a7.66,7.66,0,0,0-.13,1.58c0,.1.16.11.19,0a10.06,10.06,0,0,0,.17-1.57C102,300.81,102,300.28,102.08,299.74Z" transform="translate(-11.75 -29.91)"/><path class="cls-5" d="M99.91,287.24c-.29,1.1-.57,2.21-.78,3.33-.1.56-.19,1.13-.26,1.71a6.17,6.17,0,0,0-.11,1.66,0,0,0,0,0,.08,0,9.42,9.42,0,0,0,.26-1.59c.08-.55.16-1.1.25-1.64.21-1.15.41-2.3.7-3.43A.07.07,0,0,0,99.91,287.24Z" transform="translate(-11.75 -29.91)"/><path class="cls-5" d="M56.89,354.25q-.27-3.12-.6-6.24-.66-6.17-1.49-12.32c-.55-4.09-1.08-8.19-1.73-12.26a31.88,31.88,0,0,0-1.26-5.57,5.3,5.3,0,0,0-3.09-3.48c-3.89-1.34-6.51,2.69-8.08,5.54a.07.07,0,0,0,.13.07c.94-1.35,3.54-5.14,6.49-5,2,.12,3.57,1.52,4.52,6.47,2.38,12.32,4.52,37.34,4.76,39,.14.86.75.83.76-.1C57.31,358.33,57.07,356.28,56.89,354.25Z" transform="translate(-11.75 -29.91)"/><path class="cls-6" d="M41.69,318.39s3.4-12-4.11-6c-12.5,10-12.95,31.7-12.95,31.7s22.23-12.9,25-21.42C53.74,310,41.69,318.39,41.69,318.39Z" transform="translate(-11.75 -29.91)"/><path class="cls-5" d="M45.9,324.28c-1.75.35-3.51.58-5.28.83l-2.5.36-1.7.2c1.66-2.28,3.33-4.56,4.92-6.88.06-.09-.08-.18-.15-.11A50.69,50.69,0,0,0,37.47,323c-.32-.92-.66-1.85-1-2.78a33.32,33.32,0,0,1-1.06-3.25c0-.09-.17-.05-.14,0,.3,1.1.52,2.22.81,3.33s.61,2.11,1,3.15c-.81,1.06-1.59,2.14-2.35,3.23-.38-1.08-.86-2.13-1.19-3.23,0-.09-.17-.05-.14,0,.39,1.22.61,2.49,1,3.71-.51.74-1,1.49-1.5,2.24-.9,1.39-1.75,2.8-2.58,4.22a.34.34,0,0,0-.19.34c-1.4,2.43-2.74,4.89-4.06,7.38,0,.08.09.16.13.07C27.5,339,29,336.6,30.5,334.26h0a3.26,3.26,0,0,1,.73-.14L32,334l1.71-.42c1.13-.28,2.24-.54,3.39-.74.09,0,0-.16,0-.15-1.35.26-2.7.41-4.06.57-.64.08-1.28.16-1.92.26H31c.8-1.21,1.61-2.42,2.43-3.61s1.63-2.33,2.47-3.48c.77-.11,1.53-.31,2.3-.46l2.58-.5c1.72-.34,3.43-.72,5.16-1C46,324.4,46,324.26,45.9,324.28Z" transform="translate(-11.75 -29.91)"/><path class="cls-5" d="M32.54,325.46l-.3-1a19.71,19.71,0,0,1-.51-2c0-.09-.16-.05-.14.05.14.67.3,1.35.46,2a12.4,12.4,0,0,0,.58,2,.13.13,0,0,0,.25-.08C32.79,326.14,32.65,325.8,32.54,325.46Z" transform="translate(-11.75 -29.91)"/><path class="cls-5" d="M48.17,321.5c-1,.15-2,.22-3.05.31s-2,.23-3.06.39c-.05,0-.06.09,0,.09,1-.07,2-.15,3.06-.29s2-.28,3.06-.35C48.27,321.64,48.26,321.48,48.17,321.5Z" transform="translate(-11.75 -29.91)"/><path class="cls-5" d="M73.25,339.06c-.4-8.83-1-17.65-1.85-26.45-.44-4.38-.93-8.76-1.55-13.12a93.26,93.26,0,0,0-2.53-12.7,24.28,24.28,0,0,0-4.23-9,9.59,9.59,0,0,0-8.54-3.73c-3.86.48-7,2.91-9.67,5.56-3,3-5.78,6.21-8.58,9.39-.71.8-1.41,1.61-2.11,2.42-.06.07.05.18.11.1,2.73-3.14,5.58-6.19,8.55-9.11,2.75-2.7,5.58-5.65,9.38-6.76a9.67,9.67,0,0,1,5.46-.13,8.71,8.71,0,0,1,3.72,2.36,19.5,19.5,0,0,1,4.2,8.17c2.38,8.12,3.23,16.63,4.11,25s1.5,17.06,1.93,25.62.77,17.21,1.6,25.78c.1,1.06.24,2.11.37,3.17.09.71,1.19.71,1.13,0C74.05,356.8,73.64,347.93,73.25,339.06Z" transform="translate(-11.75 -29.91)"/><path class="cls-6" d="M44.4,280.63s5-9.34-.92-12.33-25.91,19.27-31.73,51.83c0,0,32.21-14.26,43.15-28.46S53.44,274.34,44.4,280.63Z" transform="translate(-11.75 -29.91)"/><path class="cls-5" d="M49.13,288.22c-3.62,0-7.23-.27-10.85-.25.68-.78,1.35-1.56,2-2.33a33.89,33.89,0,0,0,2.83-3.29c.05-.07-.06-.18-.13-.12A25.41,25.41,0,0,0,40.28,285c-.91,1-1.81,1.93-2.71,2.9-1.38,1.49-2.74,3-4.09,4.54,0-.15,0-.29,0-.44,0-.63,0-1.27,0-1.9,0-1.23,0-2.46,0-3.68,0-2.49,0-5,.19-7.48,0-.09-.14-.09-.14,0-.18,2.5-.44,5-.56,7.49-.06,1.23-.09,2.46-.1,3.68,0,.64,0,1.27,0,1.91,0,.34,0,.71,0,1.06l-.64.71c-2.89,3.31-5.64,6.72-8.31,10.2,0-.2,0-.39-.05-.58,0-.38-.08-.77-.13-1.15-.09-.83-.2-1.66-.33-2.48s-.24-1.56-.37-2.33-.36-1.75-.42-2.63a.08.08,0,1,0-.15,0,21.49,21.49,0,0,1,.3,2.65c.08.8.15,1.6.22,2.39s.15,1.6.23,2.39c0,.39.07.77.11,1.15,0,.19.05.39.08.58a1,1,0,0,0,.15.45l-1.38,1.8q-2.73,3.63-5.41,7.31c-.06.07.05.18.11.1,1.7-2.22,3.44-4.39,5.21-6.55,1.33.06,2.68,0,4-.06s2.79,0,4.19,0c.1,0,.09-.15,0-.15l-4.2,0c-1.27,0-2.57-.06-3.84,0q2.34-2.84,4.71-5.65c.57-.69,1.15-1.37,1.73-2.05a7.94,7.94,0,0,0,1.62.05h1.9l3.57-.05c2.46,0,4.92-.12,7.38-.13.09,0,.09-.14,0-.15-2.47,0-4.93-.13-7.39-.19l-3.57-.09-1.91,0c-.36,0-.73,0-1.1,0,1.35-1.6,2.7-3.21,4.06-4.81a.18.18,0,0,0,.07-.08c1.32-1.56,2.64-3.12,4-4.66.18-.22.37-.42.55-.64,3.75.12,7.5-.12,11.26-.05C49.23,288.37,49.23,288.22,49.13,288.22Z" transform="translate(-11.75 -29.91)"/><path class="cls-5" d="M47.28,294.62H46.4c-.08,0-.08.13,0,.13h.87A.07.07,0,1,0,47.28,294.62Z" transform="translate(-11.75 -29.91)"/><path class="cls-5" d="M45.33,294.63c-1.16,0-2.32,0-3.48-.07l-1.74-.06a6.27,6.27,0,0,0-1.62,0c-.05,0,0,.09,0,.11a6.36,6.36,0,0,0,1.63.11l1.74,0h3.47A.08.08,0,0,0,45.33,294.63Z" transform="translate(-11.75 -29.91)"/><path class="cls-5" d="M35.2,305.5a48.68,48.68,0,0,0-7.12-.64s0,.05,0,.05c2.37.23,4.74.36,7.09.74C35.26,305.66,35.3,305.52,35.2,305.5Z" transform="translate(-11.75 -29.91)"/><path class="cls-5" d="M25.52,295.14c0-.21-.05-.42-.08-.62-.06-.47-.13-.93-.2-1.4-.14-.88-.3-1.76-.47-2.64,0-.09-.15-.06-.14,0,.11.91.21,1.82.29,2.73l.12,1.35a3.68,3.68,0,0,0,.18,1.28.17.17,0,0,0,.31-.05A1.89,1.89,0,0,0,25.52,295.14Z" transform="translate(-11.75 -29.91)"/><path class="cls-5" d="M72.93,268.64c-1.16-2.15-2.62-5-5.5-4.8-2.38.15-3.45,2.57-4,4.58-1.57,6.2-1.68,12.74-2,19.09-.65,13.43-1.23,26.87-1.31,40.31,0,3.73,0,7.46,0,11.19s0,7.62.27,11.41a.28.28,0,0,0,.56,0c0-3.25-.1-6.51-.11-9.76s0-6.34.06-9.51q.17-9.64.52-19.28c.23-6.38.51-12.76.78-19.15.14-3.19.27-6.37.42-9.56s.27-6.19.62-9.26c.2-1.72.46-3.44.82-5.14a7.05,7.05,0,0,1,1.48-3.44,3.25,3.25,0,0,1,4.2-.31,8.84,8.84,0,0,1,3,3.72C72.85,268.8,73,268.72,72.93,268.64Z" transform="translate(-11.75 -29.91)"/><path class="cls-6" d="M72.15,267.61s-2.37-8.35,2.86-4.17c8.71,6.95,9,22.08,9,22.08s-15.48-9-17.4-14.92C63.76,261.76,72.15,267.61,72.15,267.61Z" transform="translate(-11.75 -29.91)"/><path class="cls-5" d="M80.78,279.32c-.15-.23-.3-.46-.44-.69a4.19,4.19,0,0,0,0-.71c0-.36,0-.72,0-1.08,0-.7,0-1.41.08-2.11a.08.08,0,1,0-.15,0c0,.69-.07,1.38-.09,2.08l0,1c0,.13,0,.29,0,.44-.61-.94-1.23-1.88-1.88-2.79l-.57-.79a15.56,15.56,0,0,1,0-2.73c0-1,0-1.94.06-2.91a.07.07,0,0,0-.15,0c0,1-.08,2-.13,3a19.41,19.41,0,0,0-.06,2.16c-1.5-2-3.08-4-4.69-5.94-.05-.07-.16,0-.11.09q1.48,1.89,2.88,3.86c-1.82-.43-3.67-.67-5.53-.94-.09,0-.13.13,0,.14,2,.3,3.88.79,5.82,1.22h0c.75,1.05,1.48,2.1,2.21,3.15l.88,1.29h-.09l-.6-.08-1.29-.12c-.89-.07-1.78-.12-2.68-.17-.09,0-.09.15,0,.15.88,0,1.75.09,2.63.18l1.38.17.61.07.17,0,1.49,2.19c.88,1.29,1.66,2.68,2.59,3.93a.07.07,0,0,0,.12-.08A40.08,40.08,0,0,0,80.78,279.32Z" transform="translate(-11.75 -29.91)"/><path class="cls-5" d="M76.92,269.88c0-.33,0-.65,0-1a13.87,13.87,0,0,1,.08-2c0-.11-.15-.13-.15,0,0,.68-.07,1.35-.1,2,0,.34,0,.68,0,1v.47a1.6,1.6,0,0,0,0,.49.07.07,0,0,0,.13,0,1.15,1.15,0,0,0,0-.45Z" transform="translate(-11.75 -29.91)"/><path class="cls-5" d="M75,273.34c-.58-.1-1.17-.13-1.75-.18s-1.28-.11-1.91-.19a.08.08,0,1,0,0,.15c1.22.08,2.44.29,3.66.34C75.06,273.46,75.07,273.35,75,273.34Z" transform="translate(-11.75 -29.91)"/><path class="cls-5" d="M79.87,273.39c0,.07,0,.25,0,.32V274c0,.2,0,.39,0,.59v.58a1.09,1.09,0,0,0,0,.51s0,0,0,0a.48.48,0,0,0,0-.24v-.85c0-.2,0-.39,0-.59v-.27c0-.08,0-.25,0-.32S79.77,273.25,79.87,273.39Z" transform="translate(-11.75 -29.91)"/><path class="cls-5" d="M73.29,313.23c-3.26-2.45-6.18-6-10.56-6.13-3.62-.14-6.15,2.58-7.6,5.61a32.51,32.51,0,0,0-1.77,5c-.65,2.29-1.27,4.59-1.84,6.89-1.14,4.54-2.11,9.13-2.9,13.74-.44,2.57-.85,5.15-1.18,7.74a65.91,65.91,0,0,0-.76,7.92.41.41,0,0,0,.81.09c.44-2.16.63-4.4.94-6.58s.66-4.4,1-6.6c.75-4.38,1.6-8.75,2.59-13.09.94-4.09,1.86-8.25,3.18-12.24.94-2.86,2.46-6.2,5.55-7.23,4.7-1.56,9,2.42,12.41,5C73.26,313.39,73.37,313.29,73.29,313.23Z" transform="translate(-11.75 -29.91)"/><path class="cls-6" d="M69.92,310.89s-3-8.57,1.34-10.25c6.5-2.52,23.53,16.66,20.2,46,0,0-13.16-7.24-22.87-15.4s-12.2-18.8-7.92-21.55S69.92,310.89,69.92,310.89Z" transform="translate(-11.75 -29.91)"/><path class="cls-5" d="M89.49,340.38a22.73,22.73,0,0,0-1.58-3c-.56-1-1.12-2-1.7-3-1.13-1.93-2.25-3.87-3.41-5.79l-.57-.93c0-.11,0-.23.07-.34l.19-.85c.15-.64.26-1.28.38-1.92.23-1.26.45-2.54.79-3.77,0-.09-.12-.12-.14,0-.27,1.26-.67,2.5-1,3.73-.18.6-.38,1.21-.54,1.82,0,.21-.11.42-.16.63-1.4-2.29-2.83-4.58-4.36-6.78a2.89,2.89,0,0,0,.15-.94l.15-1.29c.12-1,.23-1.94.37-2.9a56.82,56.82,0,0,1,1-5.63c0-.09-.12-.12-.15,0-.46,1.85-1,3.7-1.33,5.57-.17.92-.33,1.85-.45,2.77-.07.47-.12.93-.16,1.4l-.06.42c-.47-.66-.94-1.33-1.43-2-1.51-2-3.06-3.91-4.64-5.83-.06-.07-.18,0-.12.09a103.59,103.59,0,0,1,7.4,10.8l1.28,2.08-.42-.06c-.55-.07-1.11-.1-1.66-.15l-3.32-.29c-2.22-.18-4.44-.31-6.65-.55-.1,0-.13.14,0,.15,2.24.25,4.47.61,6.7.93,1.1.16,2.2.3,3.3.44a12.33,12.33,0,0,0,2.53.26l2.62,4.25c-.2,0-.4,0-.59,0H78.77c-1.43,0-2.85,0-4.28,0-.1,0-.08.15,0,.15,1.45,0,2.89.09,4.34.16l2,.13,1,.07a2.09,2.09,0,0,0,.9,0c.74,1.2,1.49,2.4,2.22,3.6s1.37,2.22,2.08,3.32a26,26,0,0,0,2.23,3.35A.08.08,0,0,0,89.49,340.38Z" transform="translate(-11.75 -29.91)"/><path class="cls-5" d="M83.22,316.64a20.63,20.63,0,0,1-.58,2.79c-.25.95-.52,1.89-.83,2.83a.09.09,0,1,0,.17.05c.3-.92.56-1.86.78-2.8s.38-1.91.61-2.85C83.39,316.57,83.23,316.54,83.22,316.64Z" transform="translate(-11.75 -29.91)"/><path class="cls-5" d="M73.56,322.38a1.11,1.11,0,0,0-.72-.27l-1.24-.17c-.77-.11-1.54-.19-2.31-.28-1.61-.19-3.21-.35-4.81-.55-.1,0-.13.14,0,.15,1.51.18,3,.41,4.53.61l2.22.29,1.07.12a3.6,3.6,0,0,1,1.22.21A.07.07,0,0,0,73.56,322.38Z" transform="translate(-11.75 -29.91)"/><path class="cls-5" d="M83.2,335.3c-.76-.07-1.52-.09-2.28-.11l-1.15,0-.55,0a2.8,2.8,0,0,1-.71,0c-.11,0-.12.17,0,.15a3,3,0,0,1,.67,0l.6,0,1.15.06c.75.05,1.52.1,2.27.1A.08.08,0,0,0,83.2,335.3Z" transform="translate(-11.75 -29.91)"/><path class="cls-5" d="M87.84,332c.09-.43.17-.86.25-1.29.15-.85.31-1.7.46-2.54a.07.07,0,1,0-.14,0c-.19.83-.38,1.65-.56,2.48q-.15.62-.27,1.23l-.12.58a1.55,1.55,0,0,0-.07.6c0,.07.12.13.16.06A3.15,3.15,0,0,0,87.84,332Z" transform="translate(-11.75 -29.91)"/><polygon class="cls-7" points="69.7 327.43 68.97 339.57 66.8 375.43 30.04 375.43 27.87 339.57 27.14 327.43 69.7 327.43"/><polygon class="cls-5" points="69.7 327.43 68.97 339.57 27.87 339.57 27.14 327.43 69.7 327.43"/><rect class="cls-7" x="23.75" y="318.84" width="49.34" height="12.15"/></g><g id="Shadow"><ellipse class="cls-1" cx="238.62" cy="428.65" rx="202.93" ry="17.73"/></g><g id="Screens"><rect class="cls-8" x="138.35" y="1.01" width="190.2" height="189.81"/><rect class="cls-5" x="138.35" y="1.01" width="190.32" height="11.47"/><path class="cls-4" d="M159.14,36.65a2.39,2.39,0,1,1-2.38-2.38A2.38,2.38,0,0,1,159.14,36.65Z" transform="translate(-11.75 -29.91)"/><path class="cls-2" d="M168.88,36.65a2.39,2.39,0,1,1-2.39-2.38A2.39,2.39,0,0,1,168.88,36.65Z" transform="translate(-11.75 -29.91)"/><path class="cls-6" d="M178.61,36.65a2.39,2.39,0,1,1-2.38-2.38A2.39,2.39,0,0,1,178.61,36.65Z" transform="translate(-11.75 -29.91)"/><rect class="cls-2" x="163.98" y="31.9" width="139.07" height="139.07"/><path class="cls-6" d="M245.17,178.13V177a48.36,48.36,0,1,0-48.35-48.35h-1.09a49.44,49.44,0,1,1,49.44,49.44Z" transform="translate(-11.75 -29.91)"/><path class="cls-2" d="M198.93,128.69a2.66,2.66,0,1,1-2.65-2.66A2.65,2.65,0,0,1,198.93,128.69Z" transform="translate(-11.75 -29.91)"/><path class="cls-6" d="M196.27,131.88a3.2,3.2,0,1,1,3.2-3.19A3.19,3.19,0,0,1,196.27,131.88Zm0-5.3a2.11,2.11,0,1,0,2.12,2.11A2.11,2.11,0,0,0,196.27,126.58Z" transform="translate(-11.75 -29.91)"/><path class="cls-6" d="M230.32,118.49a5.77,5.77,0,1,1-5.76-5.77A5.76,5.76,0,0,1,230.32,118.49Z" transform="translate(-11.75 -29.91)"/><circle class="cls-6" cx="254.04" cy="88.58" r="5.76"/><circle class="cls-2" cx="282.33" cy="98.78" r="2.65"/><path class="cls-6" d="M294.07,131.88a3.2,3.2,0,1,1,3.2-3.19A3.2,3.2,0,0,1,294.07,131.88Zm0-5.3a2.11,2.11,0,1,0,2.11,2.11A2.11,2.11,0,0,0,294.07,126.58Z" transform="translate(-11.75 -29.91)"/><path class="cls-2" d="M247.83,79.79a2.66,2.66,0,1,1-2.66-2.65A2.66,2.66,0,0,1,247.83,79.79Z" transform="translate(-11.75 -29.91)"/><path class="cls-6" d="M245.17,83a3.2,3.2,0,1,1,3.2-3.2A3.2,3.2,0,0,1,245.17,83Zm0-5.31a2.11,2.11,0,1,0,2.12,2.11A2.12,2.12,0,0,0,245.17,77.68Z" transform="translate(-11.75 -29.91)"/><path class="cls-6" d="M247.83,177.57a2.66,2.66,0,1,1-2.66-2.66A2.66,2.66,0,0,1,247.83,177.57Z" transform="translate(-11.75 -29.91)"/><path class="cls-5" d="M255.73,183.79a30.25,30.25,0,0,1,2.11,13.44l-4.94,2.41a30.19,30.19,0,0,1-9.31-9.92c3.69-5.32.72-11.73.72-11.73l.51-.25,4.91,10a1.73,1.73,0,1,0,2.64.59,1.7,1.7,0,0,0-1.93-.93l-4.91-10.06.51-.25S249.27,183.43,255.73,183.79Z" transform="translate(-11.75 -29.91)"/><rect class="cls-5" x="251.76" y="197.66" width="8.12" height="3.42" transform="translate(-73.29 102.6) rotate(-26.03)"/><rect class="cls-5" x="252.57" y="167.08" width="0.63" height="6.08"/><rect class="cls-5" x="249.84" y="169.8" width="6.08" height="0.63"/><rect class="cls-5" x="261.59" y="199.71" width="6.08" height="0.63" transform="translate(-75.67 215.8) rotate(-45)"/><rect class="cls-5" x="264.32" y="196.98" width="0.63" height="6.08" transform="translate(-75.67 215.8) rotate(-45)"/><path class="cls-5" d="M264.62,186.83c-4.8-.12-6.41-3.25-7.83-6-.78-1.53-1.52-3-2.72-3.67-3.83-2.23-7.45,1-7.6,1.16l-.86-.92s4.45-4,9.09-1.33c1.52.88,2.34,2.49,3.21,4.18,1.39,2.69,2.69,5.23,6.74,5.33Z" transform="translate(-11.75 -29.91)"/><path class="cls-6" d="M256,117.18a10.83,10.83,0,1,1-21.65,0Z" transform="translate(-11.75 -29.91)"/><rect class="cls-9" x="87.78" y="40.91" width="33.17" height="124.73"/><rect class="cls-1" x="102.09" y="71.88" width="0.27" height="2.9" transform="translate(-33.66 63.85) rotate(-45)"/><rect class="cls-1" x="100.77" y="73.19" width="2.9" height="0.27" transform="translate(-33.66 63.85) rotate(-45)"/><rect class="cls-1" x="129.12" y="72.99" width="0.27" height="1.72" transform="translate(-26.1 83.15) rotate(-45.01)"/><rect class="cls-1" x="128.4" y="72.69" width="1.72" height="0.27" transform="translate(-25.38 82.82) rotate(-45)"/><rect class="cls-1" x="130.46" y="72.99" width="0.27" height="1.72" transform="translate(-25.71 84.07) rotate(-45)"/><rect class="cls-1" x="129.74" y="72.69" width="1.72" height="0.27" transform="translate(-24.99 83.77) rotate(-45)"/><path class="cls-1" d="M108.69,91.58l-1.42-3.45-2.55,2V79.05l7.74,7.81-3.24.48,1.42,3.43Zm-1.19-4.31,1.48,3.6,1-.39-1.48-3.57,2.87-.43-6.06-6.12V89Z" transform="translate(-11.75 -29.91)"/><polygon class="cls-1" points="114.6 57.22 116.05 60.72 114.6 61.32 113.14 57.8 110.75 59.65 110.75 49.8 117.65 56.77 114.6 57.22"/><rect class="cls-1" x="102.96" y="104.82" width="10.95" height="0.81" transform="translate(-52.96 96.21) rotate(-52.08)"/><polygon class="cls-1" points="96.05 71.84 94.4 72.15 94.03 73.88 93.67 72.15 92.02 71.84 93.66 71.44 94.03 69.8 94.41 71.44 96.05 71.84"/><polygon class="cls-1" points="99.7 69.09 98.74 69.27 98.52 70.29 98.3 69.27 97.34 69.09 98.3 68.86 98.52 67.9 98.74 68.86 99.7 69.09"/><polygon class="cls-1" points="100.84 74.56 100.29 74.67 100.17 75.25 100.05 74.67 99.49 74.56 100.04 74.43 100.17 73.88 100.29 74.43 100.84 74.56"/><rect class="cls-1" x="118.96" y="135.74" width="10.95" height="0.81" transform="translate(-71.19 120.75) rotate(-52.08)"/><polygon class="cls-1" points="114.6 76.84 116.05 80.34 114.6 80.94 113.14 77.42 110.75 79.28 110.75 69.42 117.65 76.39 114.6 76.84"/><path class="cls-1" d="M121.83,105.41a3.18,3.18,0,0,1-2.91-1.25c-.58-1.12-.14-3.49,3.38-5.41,2.81-1.53,5.61-.9,6.3.21a2.31,2.31,0,0,1,.11,1.87,6.85,6.85,0,0,1-3.88,3.91h0A7.62,7.62,0,0,1,121.83,105.41Zm3.92-7a6.73,6.73,0,0,0-3.19.85c-3.16,1.73-3.62,3.8-3.16,4.7s2.66,1.45,5.21.32h0a6.35,6.35,0,0,0,3.58-3.56,1.74,1.74,0,0,0-.06-1.44A2.85,2.85,0,0,0,125.75,98.37Z" transform="translate(-11.75 -29.91)"/><path class="cls-1" d="M120.29,106.11a1.27,1.27,0,0,1-1-.52h0a1.18,1.18,0,0,1-.15-1.25,1.62,1.62,0,0,1,1.4-.84,1.23,1.23,0,0,1,1.13.64,1.27,1.27,0,0,1-.5,1.72A1.53,1.53,0,0,1,120.29,106.11Zm-.6-.85a.83.83,0,0,0,1.15.14.73.73,0,0,0,.31-1,.67.67,0,0,0-.64-.35,1.12,1.12,0,0,0-.93.54.63.63,0,0,0,.11.68Z" transform="translate(-11.75 -29.91)"/><path class="cls-1" d="M121.82,107.56l-.32-.44c.16-.12.34-.3.32-.48s-.64-.65-.93-.76l.2-.51c.12,0,1.17.48,1.27,1.2A1.06,1.06,0,0,1,121.82,107.56Z" transform="translate(-11.75 -29.91)"/><path class="cls-1" d="M105,119.56a13.48,13.48,0,0,1,5.33-2.82l1.73,1.73a13.48,13.48,0,0,1-2.82,5.33,5.7,5.7,0,0,0-5,1.39L104,125l3.5-3.51a.76.76,0,1,0-.24-.24l-3.51,3.51-.18-.18A5.7,5.7,0,0,0,105,119.56Z" transform="translate(-11.75 -29.91)"/><rect class="cls-1" x="109.69" y="116.52" width="3.6" height="1.52" transform="translate(95.65 249.14) rotate(-135)"/><rect class="cls-5" x="105.45" y="83.87" width="13.28" height="12.4"/><path class="cls-1" d="M122,119.56a13.57,13.57,0,0,1,5.34-2.82l1.72,1.73a13.33,13.33,0,0,1-2.82,5.33,5.67,5.67,0,0,0-5,1.39L121,125l3.51-3.51a.75.75,0,0,0,.94-.11.76.76,0,0,0-1.08-1.08.77.77,0,0,0-.11,1l-3.51,3.51-.18-.18A5.7,5.7,0,0,0,122,119.56Z" transform="translate(-11.75 -29.91)"/><rect class="cls-1" x="126.73" y="116.52" width="3.6" height="1.52" transform="translate(124.73 261.19) rotate(-135)"/><path class="cls-1" d="M120.79,125a2.12,2.12,0,0,1-1.85-.92c-.38-.61-.62-1.77.4-3.91a2,2,0,0,0,.16-1.85,2.42,2.42,0,0,0-1.68-1l.07-.54A3,3,0,0,1,120,118.1a2.49,2.49,0,0,1-.15,2.35c-.91,1.91-.74,2.89-.43,3.38a1.59,1.59,0,0,0,1.39.66Z" transform="translate(-11.75 -29.91)"/><path class="cls-1" d="M111.68,131.12v2.21H111a.31.31,0,0,1-.32-.24c0-.08,0-.25-.06-.54h-1.9v6.64l.37.07.2,0h.07a.38.38,0,0,1,.34.4v.76H106v-.76a.37.37,0,0,1,.32-.4h.08l.2,0,.37-.07v-6.65H105c0,.29,0,.47-.07.55a.28.28,0,0,1-.29.24h-.75v-2.21h7.77Z" transform="translate(-11.75 -29.91)"/><path class="cls-1" d="M113,158.5H103.5V149H113Zm-8.68-.81h7.87v-7.87h-7.87Z" transform="translate(-11.75 -29.91)"/><path class="cls-1" d="M128,186.81h-8.19v-7.34H128Zm-7.38-.82h6.57v-5.71h-6.57Z" transform="translate(-11.75 -29.91)"/><path class="cls-1" d="M123.46,189h-5.71v-5.14h5.71Zm-4.9-.81h4.09v-3.52h-4.09Z" transform="translate(-11.75 -29.91)"/><rect class="cls-1" x="123.85" y="181.93" width="2.92" height="0.54" transform="translate(-103.88 112.07) rotate(-45)"/><polygon class="cls-1" points="114.99 152.49 114.45 152.49 114.45 151.41 113.41 151.41 113.41 150.87 114.99 150.87 114.99 152.49"/><path class="cls-1" d="M128.41,158.5h-9.5V149h4.44a3.6,3.6,0,0,1,7.17.49,3.64,3.64,0,0,1-2.11,3.28Zm-8.68-.81h7.87v-5.48l.26-.1a2.79,2.79,0,0,0-.94-5.41,2.77,2.77,0,0,0-2.79,2.72v.4h-4.39Z" transform="translate(-11.75 -29.91)"/><path class="cls-1" d="M124.92,151.67c-1.42-.24-1.62,1.25-1.64,1.84a1.64,1.64,0,0,1-1.14,1.25s2.19.61,3.29-.51A1.47,1.47,0,0,0,124.92,151.67Z" transform="translate(-11.75 -29.91)"/><path class="cls-1" d="M129.76,147.11l-3.55,5a1.5,1.5,0,0,0-1.1-.84l-.24,0,2.94-4.16Z" transform="translate(-11.75 -29.91)"/><rect class="cls-1" x="105.91" y="166.51" width="3.53" height="7.19" transform="translate(140.07 -56.22) rotate(45)"/><rect class="cls-1" x="109.41" y="165.84" width="3.53" height="1.53" transform="translate(138.62 -59.72) rotate(45)"/><polygon class="cls-1" points="91.92 144.2 92.12 141.55 92.66 141.59 92.51 143.62 94.53 143.46 94.57 144 91.92 144.2"/><path class="cls-1" d="M126.63,169.89a1.92,1.92,0,1,1,1.91-1.92A1.92,1.92,0,0,1,126.63,169.89Zm0-3a1.1,1.1,0,1,0,1.1,1.1A1.1,1.1,0,0,0,126.63,166.87Z" transform="translate(-11.75 -29.91)"/><path class="cls-1" d="M117.83,172.88l7.51-4.13,1.29.73s-5.47,3.34-6.44,3.69A3.73,3.73,0,0,1,117.83,172.88Z" transform="translate(-11.75 -29.91)"/><path class="cls-1" d="M126.6,174.14a1.91,1.91,0,1,1,1.91-1.91A1.9,1.9,0,0,1,126.6,174.14Zm0-3a1.1,1.1,0,1,0,1.1,1.1A1.1,1.1,0,0,0,126.6,171.13Z" transform="translate(-11.75 -29.91)"/><path class="cls-1" d="M117.8,167.32l7.51,4.13,1.29-.73s-5.47-3.34-6.44-3.69A3.75,3.75,0,0,0,117.8,167.32Z" transform="translate(-11.75 -29.91)"/><path class="cls-1" d="M103.55,187.74v-7l4.49,3.52Zm.82-5.37v3.7l2.36-1.85Z" transform="translate(-11.75 -29.91)"/><polygon class="cls-1" points="101.18 150.9 101.18 157.73 96.84 154.31 101.18 150.9"/><path class="cls-1" d="M108.48,188h-.28v-1.09h.28Zm0-2.17h-.28v-1.09h.28Zm0-2.17h-.28v-1.08h.28Zm0-2.17h-.28v-1.08h.28Z" transform="translate(-11.75 -29.91)"/><rect class="cls-9" x="333.22" y="10.01" width="68.31" height="40.53"/><polygon class="cls-1" points="336.85 13.64 334.8 11.6 334.99 11.4 337.04 13.45 336.85 13.64"/><polygon class="cls-1" points="334.99 13.64 334.8 13.45 336.85 11.4 337.04 11.6 334.99 13.64"/><rect class="cls-1" x="409.55" y="42.09" width="0.27" height="1.72" transform="translate(77.83 272.3) rotate(-44.99)"/><rect class="cls-1" x="408.83" y="41.79" width="1.72" height="0.27" transform="translate(78.6 272.06) rotate(-45)"/><rect class="cls-1" x="410.89" y="42.09" width="0.27" height="1.72" transform="translate(78.23 273.25) rotate(-44.99)"/><rect class="cls-1" x="410.17" y="41.79" width="1.72" height="0.27" transform="translate(79.08 273.11) rotate(-45.02)"/><rect class="cls-1" x="345.3" y="16.46" width="0.27" height="26.63"/><rect class="cls-1" x="355.12" y="16.46" width="0.27" height="26.63"/><path class="cls-1" d="M352.18,48.82a3.33,3.33,0,0,0-2.84,1.61,3.49,3.49,0,0,0,2.84,1.63,3.63,3.63,0,0,0,2.89-1.63A3.49,3.49,0,0,0,352.18,48.82Zm0,2.94a1.32,1.32,0,1,1,1.32-1.32A1.32,1.32,0,0,1,352.18,51.76Z" transform="translate(-11.75 -29.91)"/><path class="cls-1" d="M353.2,50.44a1,1,0,1,1-1-1A1,1,0,0,1,353.2,50.44Z" transform="translate(-11.75 -29.91)"/><path class="cls-1" d="M352.18,58.09a3.33,3.33,0,0,0-2.84,1.61,3.5,3.5,0,0,0,2.84,1.62,3.63,3.63,0,0,0,2.89-1.62A3.49,3.49,0,0,0,352.18,58.09Zm0,2.94a1.33,1.33,0,1,1,1.32-1.32A1.32,1.32,0,0,1,352.18,61Z" transform="translate(-11.75 -29.91)"/><path class="cls-1" d="M353.2,59.7a1,1,0,1,1-1-1A1,1,0,0,1,353.2,59.7Z" transform="translate(-11.75 -29.91)"/><path class="cls-1" d="M352.18,66.94a3.33,3.33,0,0,0-2.84,1.61,3.5,3.5,0,0,0,2.84,1.62,3.63,3.63,0,0,0,2.89-1.62A3.49,3.49,0,0,0,352.18,66.94Zm0,2.94a1.33,1.33,0,1,1,1.32-1.32A1.32,1.32,0,0,1,352.18,69.88Z" transform="translate(-11.75 -29.91)"/><path class="cls-1" d="M353.2,68.55a1,1,0,1,1-1-1A1,1,0,0,1,353.2,68.55Z" transform="translate(-11.75 -29.91)"/><rect class="cls-1" x="336.05" y="25.22" width="62.67" height="0.27"/><rect class="cls-1" x="336.05" y="34.11" width="62.67" height="0.27"/><path class="cls-1" d="M374.41,52.37h0a.16.16,0,0,1-.16-.16V48a.16.16,0,0,1,.32,0v4.06h2.16a.16.16,0,1,1,0,.32Z" transform="translate(-11.75 -29.91)"/><path class="cls-1" d="M380.47,49.35v2.86a.16.16,0,0,1-.15.16.16.16,0,0,1-.16-.16v-.47a1.49,1.49,0,0,1-1.19.63,1.59,1.59,0,0,1,0-3.17,1.45,1.45,0,0,1,1.19.62v-.47a.15.15,0,0,1,.16-.15A.15.15,0,0,1,380.47,49.35Zm-.31,1.43A1.19,1.19,0,1,0,379,52.06,1.24,1.24,0,0,0,380.16,50.78Z" transform="translate(-11.75 -29.91)"/><path class="cls-1" d="M381.75,49.35a.15.15,0,0,1,.15-.15.15.15,0,0,1,.16.15v1.72a1,1,0,0,0,1,1,1,1,0,0,0,1-1V49.35a.11.11,0,0,1,0-.08,0,0,0,0,1,0,0h0s0,0,.06,0h.07s.05,0,.08,0l0,.05a.19.19,0,0,1,0,.07v2.76a1.5,1.5,0,0,1-1.51,1.49,1.59,1.59,0,0,1-.65-.15.14.14,0,0,1-.07-.2.16.16,0,0,1,.2-.08,1.17,1.17,0,0,0,.52.12,1.19,1.19,0,0,0,1.2-1.18v-.2a1.32,1.32,0,0,1-1,.45,1.3,1.3,0,0,1-1.28-1.29Z" transform="translate(-11.75 -29.91)"/><path class="cls-1" d="M385.4,50.79a1.54,1.54,0,0,1,3.07-.12h0v0a.15.15,0,0,1-.16.14h-2.6a1.25,1.25,0,0,0,1.23,1.22,1.18,1.18,0,0,0,1-.58.15.15,0,0,1,.21,0,.16.16,0,0,1,.05.22,1.51,1.51,0,0,1-1.28.72A1.57,1.57,0,0,1,385.4,50.79Zm.33-.25h2.4a1.21,1.21,0,0,0-2.4,0Z" transform="translate(-11.75 -29.91)"/><path class="cls-1" d="M389.43,49.36a.16.16,0,0,1,.16-.16.16.16,0,0,1,.15.16v.7l0-.08a1.52,1.52,0,0,1,1.27-.78.16.16,0,0,1,.16.16.16.16,0,0,1-.16.15,1.17,1.17,0,0,0-.92.52,3.22,3.22,0,0,0-.38.74.11.11,0,0,0,0,0v1.39a.16.16,0,0,1-.15.16.16.16,0,0,1-.16-.16Z" transform="translate(-11.75 -29.91)"/><path class="cls-1" d="M394.7,48.3l-.64.37a.11.11,0,0,1-.08,0,.13.13,0,0,1-.13-.08.14.14,0,0,1,.06-.21l.87-.53a.15.15,0,0,1,.21.06.14.14,0,0,1,0,.11v4.16a.15.15,0,0,1-.15.16.16.16,0,0,1-.16-.16Z" transform="translate(-11.75 -29.91)"/><path class="cls-1" d="M374.41,61.69h0a.16.16,0,0,1-.16-.15V57.32a.16.16,0,0,1,.32,0v4.06h2.16a.16.16,0,1,1,0,.31Z" transform="translate(-11.75 -29.91)"/><path class="cls-1" d="M380.47,58.68v2.86a.15.15,0,0,1-.15.15.16.16,0,0,1-.16-.15v-.47a1.48,1.48,0,0,1-1.19.62,1.58,1.58,0,0,1,0-3.16,1.45,1.45,0,0,1,1.19.62v-.47a.15.15,0,0,1,.16-.15A.15.15,0,0,1,380.47,58.68Zm-.31,1.43A1.19,1.19,0,1,0,379,61.38,1.24,1.24,0,0,0,380.16,60.11Z" transform="translate(-11.75 -29.91)"/><path class="cls-1" d="M381.75,58.67a.15.15,0,0,1,.15-.14.15.15,0,0,1,.16.14v1.72a1,1,0,0,0,1,1,1,1,0,0,0,1-1V58.67a.1.1,0,0,1,0-.07v0h0s0,0,.06,0h.07a.13.13,0,0,1,.08,0l0,0a.14.14,0,0,1,0,.06v2.77a1.5,1.5,0,0,1-1.51,1.49,1.59,1.59,0,0,1-.65-.15.15.15,0,0,1-.07-.21.17.17,0,0,1,.2-.07,1.32,1.32,0,0,0,.52.12,1.19,1.19,0,0,0,1.2-1.18v-.2a1.32,1.32,0,0,1-1,.45,1.3,1.3,0,0,1-1.28-1.3Z" transform="translate(-11.75 -29.91)"/><path class="cls-1" d="M385.4,60.12a1.54,1.54,0,0,1,3.07-.12h0v0a.15.15,0,0,1-.16.14h-2.6a1.24,1.24,0,0,0,1.23,1.21,1.19,1.19,0,0,0,1-.57.15.15,0,0,1,.21-.05.16.16,0,0,1,.05.22,1.5,1.5,0,0,1-1.28.71A1.56,1.56,0,0,1,385.4,60.12Zm.33-.26h2.4a1.22,1.22,0,0,0-2.4,0Z" transform="translate(-11.75 -29.91)"/><path class="cls-1" d="M389.43,58.69a.16.16,0,0,1,.16-.16.16.16,0,0,1,.15.16v.7a.59.59,0,0,1,0-.08,1.52,1.52,0,0,1,1.27-.78.16.16,0,0,1,.16.16.16.16,0,0,1-.16.15,1.14,1.14,0,0,0-.92.52,3,3,0,0,0-.38.74.11.11,0,0,0,0,0v1.39a.15.15,0,0,1-.15.15.15.15,0,0,1-.16-.15Z" transform="translate(-11.75 -29.91)"/><path class="cls-1" d="M394,61.42l2.11-1.91a1.18,1.18,0,0,0,.39-.87,1.13,1.13,0,0,0-.3-.77,1.15,1.15,0,0,0-.86-.39,1.16,1.16,0,0,0-.79.3l-.22.2a.16.16,0,0,1-.22-.22l.22-.21a1.55,1.55,0,0,1,1-.38,1.48,1.48,0,0,1,1.47,1.47,1.5,1.5,0,0,1-.48,1.1l-1.82,1.64h2.15a.16.16,0,0,1,.15.16.15.15,0,0,1-.15.15h-2.55a.15.15,0,0,1-.11-.27Z" transform="translate(-11.75 -29.91)"/><path class="cls-1" d="M374.41,71h0a.16.16,0,0,1-.16-.15V66.65a.16.16,0,0,1,.32,0v4.06h2.16a.16.16,0,1,1,0,.31Z" transform="translate(-11.75 -29.91)"/><path class="cls-1" d="M380.47,68v2.86a.15.15,0,0,1-.15.15.16.16,0,0,1-.16-.15V70.4A1.48,1.48,0,0,1,379,71a1.59,1.59,0,0,1,0-3.17,1.48,1.48,0,0,1,1.19.62V68a.16.16,0,0,1,.16-.16A.16.16,0,0,1,380.47,68Zm-.31,1.43A1.19,1.19,0,1,0,379,70.71,1.24,1.24,0,0,0,380.16,69.44Z" transform="translate(-11.75 -29.91)"/><path class="cls-1" d="M381.75,68a.15.15,0,0,1,.15-.15.16.16,0,0,1,.16.15v1.72a1,1,0,0,0,1,1,1,1,0,0,0,1-1V68a.12.12,0,0,1,0-.08h0s0,0,.06,0h.07l.08,0,0,0a.14.14,0,0,1,0,.06v2.77a1.5,1.5,0,0,1-1.51,1.49,1.59,1.59,0,0,1-.65-.15.16.16,0,0,1-.07-.21.17.17,0,0,1,.2-.07,1.32,1.32,0,0,0,.52.12,1.2,1.2,0,0,0,1.2-1.18v-.21a1.28,1.28,0,0,1-2.27-.84Z" transform="translate(-11.75 -29.91)"/><path class="cls-1" d="M385.4,69.45a1.54,1.54,0,1,1,3.07-.12h0a.16.16,0,0,1-.16.15h-2.6a1.24,1.24,0,0,0,1.23,1.21,1.19,1.19,0,0,0,1-.57.15.15,0,0,1,.21,0,.16.16,0,0,1,.05.22,1.5,1.5,0,0,1-1.28.71A1.56,1.56,0,0,1,385.4,69.45Zm.33-.26h2.4a1.21,1.21,0,0,0-2.4,0Z" transform="translate(-11.75 -29.91)"/><path class="cls-1" d="M389.43,68a.15.15,0,0,1,.16-.16.15.15,0,0,1,.15.16v.69l0-.07a1.52,1.52,0,0,1,1.27-.78.15.15,0,0,1,.16.16.16.16,0,0,1-.16.15,1.14,1.14,0,0,0-.92.52,3,3,0,0,0-.38.74.09.09,0,0,0,0,0v1.39a.15.15,0,0,1-.15.15.15.15,0,0,1-.16-.15Z" transform="translate(-11.75 -29.91)"/><path class="cls-1" d="M396.7,66.78,395.53,68a1.58,1.58,0,0,1,.78.42,1.54,1.54,0,0,1-2.18,2.17.16.16,0,0,1,.23-.23,1.18,1.18,0,0,0,.85.35,1.21,1.21,0,0,0,1.22-1.21,1.23,1.23,0,0,0-1.21-1.21.16.16,0,0,1-.13-.06h0a.17.17,0,0,1,0-.23l1.13-1.16h-1.74a.16.16,0,0,1,0-.32h2.12a.16.16,0,0,1,.16.16.19.19,0,0,1,0,.07A.09.09,0,0,1,396.7,66.78Z" transform="translate(-11.75 -29.91)"/><rect class="cls-9" x="356.07" y="25.95" width="2.03" height="7.69"/><rect class="cls-5" x="356.07" y="34.8" width="2.03" height="7.69"/><rect class="cls-6" x="356.07" y="16.69" width="2.03" height="7.69"/><rect class="cls-1" x="336.05" y="47.27" width="11.91" height="0.27"/><rect class="cls-1" x="348.31" y="20.06" width="4.12" height="3.46"/><path class="cls-1" d="M363.68,50.35h-.48v-.91c0-1-.36-1.51-1.06-1.51-1.13,0-1.14,1.34-1.14,1.39v1h-.48v-1a1.7,1.7,0,0,1,1.62-1.87c1,0,1.54.7,1.54,2Z" transform="translate(-11.75 -29.91)"/><path class="cls-1" d="M405,52.55a2.11,2.11,0,1,1,2.11-2.11A2.12,2.12,0,0,1,405,52.55Zm0-3.95a1.84,1.84,0,1,0,1.84,1.84A1.85,1.85,0,0,0,405,48.6Z" transform="translate(-11.75 -29.91)"/><path class="cls-1" d="M405,61.81a2.11,2.11,0,1,1,2.11-2.11A2.11,2.11,0,0,1,405,61.81Zm0-3.94a1.84,1.84,0,1,0,1.84,1.83A1.84,1.84,0,0,0,405,57.87Z" transform="translate(-11.75 -29.91)"/><path class="cls-1" d="M405,71.08A2.11,2.11,0,1,1,407.08,69,2.12,2.12,0,0,1,405,71.08Zm0-4A1.84,1.84,0,1,0,406.81,69,1.85,1.85,0,0,0,405,67.13Z" transform="translate(-11.75 -29.91)"/></g><g id="Character"><polygon class="cls-4" points="274.36 288.91 271.44 306.38 251.71 412.96 248.53 412.96 262.88 306.38 265 288.91 274.36 288.91"/><polygon class="cls-8" points="265 288.91 274.36 288.91 271.44 306.38 262.88 306.38 265 288.91"/><polygon class="cls-4" points="336.33 412.96 333.15 412.96 313.42 306.38 310.5 288.91 319.86 288.91 321.98 306.38 336.33 412.96"/><polygon class="cls-8" points="319.86 288.91 321.98 306.38 313.42 306.38 310.5 288.91 319.86 288.91"/><polygon class="cls-4" points="395.53 412.96 392.35 412.96 372.62 306.38 369.7 288.91 379.06 288.91 381.18 306.38 395.53 412.96"/><polygon class="cls-8" points="381.18 306.38 372.62 306.38 369.7 288.91 379.06 288.91 381.18 306.38"/><polygon class="cls-4" points="390.49 297.12 245.87 297.12 245.87 281.88 300.01 281.88 318.2 153.49 384.97 153.49 390.49 297.12"/><polygon class="cls-3" points="382.06 281.88 245.87 281.88 245.87 297.12 382.6 297.12 382.06 281.88"/><polygon class="cls-3" points="390.49 297.12 382.6 297.12 377.47 153.49 384.97 153.49 390.49 297.12"/><path class="cls-10" d="M255.12,462.8c2.8.27,79-18,81.43-20.45.29-.27-1.21-7.2-3.43-16.65l0-.19c-1.38-6-23.64-54.42-23.64-54.42L260,384.92l22.5,44.94s-9.29,6.72-17.26,13.11l0,0c-4.92,3.92-9.16,7.44-10.06,8.58C252.86,454.55,252.32,462.56,255.12,462.8Z" transform="translate(-11.75 -29.91)"/><path class="cls-2" d="M255.12,462.8c2.79.27,79-18,81.43-20.45.29-.28-1.22-7.2-3.43-16.65l0-.18c-.51-2.23-3.94-10.37-8-19.7-8.13,2.19-37.28,10.1-47.86,13.39l5.32,10.65s-9.29,6.73-17.26,13.11v0c-4.92,3.92-9.17,7.45-10.06,8.58C252.86,454.56,252.31,462.57,255.12,462.8Z" transform="translate(-11.75 -29.91)"/><path class="cls-6" d="M254.87,463.17c2.88.24,79.16-18.21,81.63-20.75.94-1-.76-13-5-25.75l-49.16,11.95s-25.1,19.91-27.5,23S252,462.92,254.87,463.17Z" transform="translate(-11.75 -29.91)"/><path class="cls-5" d="M255.22,459.85c12.71-3.41,64.31-16,77.13-18.35.1,0,.12.05,0,.08-12.53,3.65-64.22,15.78-77.1,18.48C255,460.12,255,459.92,255.22,459.85Z" transform="translate(-11.75 -29.91)"/><path class="cls-5" d="M259.12,447.68a10.59,10.59,0,0,1,8.41,1.27,10.29,10.29,0,0,1,4.51,6.14c0,.07-.13.11-.16,0a12.2,12.2,0,0,0-12.72-7.29A.08.08,0,0,1,259.12,447.68Z" transform="translate(-11.75 -29.91)"/><path class="cls-5" d="M278.68,430.88c5.1-1.31,11.47-.94,15.66,2.48.16.13,0,.36-.2.32a72.62,72.62,0,0,0-15.4-2.15A.33.33,0,0,1,278.68,430.88Z" transform="translate(-11.75 -29.91)"/><path class="cls-5" d="M275.1,433.37c5.1-1.31,11.47-.94,15.66,2.48.17.13,0,.36-.2.32a73.27,73.27,0,0,0-15.4-2.15A.33.33,0,0,1,275.1,433.37Z" transform="translate(-11.75 -29.91)"/><path class="cls-5" d="M271.52,435.87c5.1-1.31,11.47-.94,15.66,2.48.17.13,0,.36-.19.32a72.81,72.81,0,0,0-15.41-2.15A.33.33,0,0,1,271.52,435.87Z" transform="translate(-11.75 -29.91)"/><path class="cls-5" d="M267.94,438.36c5.1-1.3,11.47-.93,15.67,2.48.16.14,0,.36-.2.32A72.7,72.7,0,0,0,268,439,.34.34,0,0,1,267.94,438.36Z" transform="translate(-11.75 -29.91)"/><path class="cls-5" d="M326.16,430.14c5.74-1.37,7.88,7.56,2.13,8.93S320.4,431.52,326.16,430.14Z" transform="translate(-11.75 -29.91)"/><path class="cls-5" d="M272.07,426c3.62,2.9,8.37,4.12,12.62,5.76a.64.64,0,0,0,.82-.64.13.13,0,0,0,.13-.18,27.59,27.59,0,0,0-7.82-12c-2.13-1.85-5.91-3.16-8-.38C267.88,421.18,270,424.27,272.07,426Zm-1.27-4.18c-.83-5.69,5.22-2.63,6.74-1.21a28.55,28.55,0,0,1,2.71,3,83,83,0,0,1,4.72,6.89c-2-.94-4.14-1.69-6.22-2.54C276.28,426.89,271.26,424.92,270.8,421.78Z" transform="translate(-11.75 -29.91)"/><path class="cls-5" d="M303,423.24c-1.2-3.25-5.19-3.05-7.76-1.88a27.76,27.76,0,0,0-10.86,9.29.15.15,0,0,0,.07.22.64.64,0,0,0,.61.84c4.54-.38,9.44-.23,13.73-2C301.32,428.69,304.17,426.31,303,423.24Zm-11.17,6.48c-2.23.24-4.46.37-6.68.7a81.81,81.81,0,0,1,6.46-5.29,28.88,28.88,0,0,1,3.44-2.12c1.86-.94,8.53-2.18,6.13,3.05C299.88,428.94,294.5,429.43,291.85,429.72Z" transform="translate(-11.75 -29.91)"/><path class="cls-5" d="M276.94,425.75l52.93-15.88S286.24,319,287.61,314.32c.92-3.09,66.34-3.3,85.51-20.52C393,276,377.52,241,377.52,241l-55-.28s.94,11.48-1.16,13.26c-1.39,1.19-76.58,7.81-91,35.46C217.31,314.51,276.94,425.75,276.94,425.75Z" transform="translate(-11.75 -29.91)"/><path class="cls-5" d="M287.61,314.32c-.24.78.83,4.05,2.76,8.93l-39.53,48.57c-14.09-32.14-27.35-69.2-20.47-82.4,14.41-27.64,89.6-34.26,91-35.45,2.09-1.79,1.15-13.27,1.15-13.27l34.91.18-58,71.26C292.42,312.91,287.85,313.51,287.61,314.32Z" transform="translate(-11.75 -29.91)"/><path class="cls-9" d="M275.62,414.55a33.48,33.48,0,0,1,4.32-1.61c1.52-.51,3.05-1,4.59-1.53,3-1,6.05-1.9,9.1-2.77,6.15-1.73,12.31-3.44,18.5-5,3.23-.82,10.14-2.61,10.57-2.55.21,0,.25.38.07.44-6,2.15-12.06,4-18.14,5.83s-12.14,3.68-18.29,5.23c-1.7.43-3.41.81-5.12,1.22a39,39,0,0,1-5.44,1.17C275.6,415,275.43,414.65,275.62,414.55Z" transform="translate(-11.75 -29.91)"/><path class="cls-9" d="M374.56,251.46c-.17-1.84-.37-3.67-.58-5.5,0-.21-.36-.21-.34,0,.74,7.43,1.49,15,.12,22.46a32.07,32.07,0,0,1-9.82,17.8c-10.92,10.18-26.17,13.17-40.39,15.59-8.14,1.39-16.33,2.45-24.55,3.26q-6,.59-12.1,1c-4,.25-8,.28-12,.51-1.26.07-2.39.64-2.2,2.09a10.18,10.18,0,0,0,1,2.52c.42,1,.85,1.95,1.28,2.92q2.42,5.45,4.85,10.89,5,11.19,10.19,22.34,10.25,22.11,21.27,43.86,1.37,2.7,2.74,5.4c.06.11.23,0,.17-.11q-10.52-22-20.79-44.17-5.08-11-10.15-22-2.52-5.51-5-11-1.25-2.76-2.48-5.52L274.51,311c-.35-.76-1.59-2.6-.73-3.32.57-.48,1.76-.31,2.45-.33l3.19-.11c2-.06,4-.15,6.06-.25q6.13-.3,12.26-.84c8-.69,16-1.7,23.89-3,14.13-2.27,29.49-4.83,40.8-14.32A34,34,0,0,0,373.27,273C375.43,266.06,375.22,258.63,374.56,251.46Z" transform="translate(-11.75 -29.91)"/><path class="cls-10" d="M138.81,393.11c2,2,72.34,36.56,75.77,36.18.4,0,3.66-6.32,8-15l.09-.17c2.75-5.5,27.78-51.72,27.78-51.72l-43.77-22.16-25.72,45s-11.45-.75-21.66-.92h0c-6.29-.12-11.8-.11-13.22.2C142.33,385.31,136.81,391.14,138.81,393.11Z" transform="translate(-11.75 -29.91)"/><path class="cls-2" d="M138.81,393.11c2,2,72.34,36.56,75.77,36.18.4,0,3.66-6.32,8-15l.09-.17c.19-.38.38-.77.59-1.15s.28-.57.44-.84.43-.83.66-1.24c1.9-3.61,5-9.46,8.48-15.86l-44.63-22.5-7.25,12.69s-11.45-.74-21.66-.91h0c-6.29-.11-11.81-.11-13.22.19C142.34,385.32,136.81,391.14,138.81,393.11Z" transform="translate(-11.75 -29.91)"/><path class="cls-6" d="M138.39,393.23c2.06,2,72.58,36.47,76.1,36.08,1.34-.14,7.71-10.5,12.61-23l-45.49-22.15s-32-.67-35.84.17S136.33,391.2,138.39,393.23Z" transform="translate(-11.75 -29.91)"/><path class="cls-5" d="M140.78,390.9c12,5.49,59.7,28.73,71.11,35.06.09.05.06.11,0,.07-12-5.17-59.52-28.8-71.17-34.93C140.44,391,140.52,390.79,140.78,390.9Z" transform="translate(-11.75 -29.91)"/><path class="cls-5" d="M151.54,384a10.57,10.57,0,0,1,5.66,6.35,10.21,10.21,0,0,1-.44,7.6c0,.07-.16,0-.14-.07a12.21,12.21,0,0,0-5.15-13.73A.08.08,0,0,1,151.54,384Z" transform="translate(-11.75 -29.91)"/><path class="cls-5" d="M177.32,383.54c4.77,2.25,9.44,6.6,10.49,11.9,0,.21-.26.26-.36.12A73.12,73.12,0,0,0,177,384.09.33.33,0,0,1,177.32,383.54Z" transform="translate(-11.75 -29.91)"/><path class="cls-5" d="M173,383.18c4.77,2.25,9.44,6.6,10.49,11.9,0,.21-.25.26-.36.12a72.64,72.64,0,0,0-10.49-11.47A.33.33,0,0,1,173,383.18Z" transform="translate(-11.75 -29.91)"/><path class="cls-5" d="M168.62,382.82c4.77,2.25,9.44,6.6,10.49,11.9,0,.21-.25.26-.36.12a72.64,72.64,0,0,0-10.49-11.47A.33.33,0,0,1,168.62,382.82Z" transform="translate(-11.75 -29.91)"/><path class="cls-5" d="M164.28,382.46c4.76,2.25,9.43,6.6,10.48,11.9,0,.21-.25.26-.36.12A72.64,72.64,0,0,0,163.91,383,.34.34,0,0,1,164.28,382.46Z" transform="translate(-11.75 -29.91)"/><path class="cls-5" d="M214.36,413.26c5.3,2.61,1.26,10.85-4.05,8.24S209.05,410.65,214.36,413.26Z" transform="translate(-11.75 -29.91)"/><path class="cls-5" d="M175.36,375.54c.95,4.54,3.83,8.52,6.06,12.49a.64.64,0,0,0,1,0,.14.14,0,0,0,.22-.06,27.61,27.61,0,0,0,1.61-14.2c-.47-2.78-2.54-6.2-5.91-5.38C175.19,369.19,174.81,372.89,175.36,375.54Zm1.7-4c3-4.92,5.7,1.31,6,3.37a30.27,30.27,0,0,1,.17,4,82.49,82.49,0,0,1-.76,8.31c-1-2-2.11-3.94-3.16-5.92C178,379,175.41,374.22,177.06,371.51Z" transform="translate(-11.75 -29.91)"/><path class="cls-5" d="M201,393.19c1.13-3.27-2.07-5.66-4.79-6.4a27.7,27.7,0,0,0-14.29.23.14.14,0,0,0-.08.21.63.63,0,0,0-.07,1c3.74,2.61,7.42,5.86,11.85,7.24C196.15,396.3,199.87,396.28,201,393.19Zm-12.75-2.14c-1.87-1.23-3.67-2.55-5.59-3.72a80.2,80.2,0,0,1,8.35.05,28.31,28.31,0,0,1,4,.56c2,.46,8,3.76,2.78,6.26C194.88,395.57,190.43,392.53,188.2,391.05Z" transform="translate(-11.75 -29.91)"/><path class="cls-5" d="M181.16,377.94l52.77,26.37s41.2-83.75,45.72-89.15c6-7.19,84.49,3,103-20.27,19.14-24,2.74-53.87,2.74-53.87l-59.73,0s-.18,6.62,3.27,16.31c0,0-68.31-4.07-87.63,14.72C226.46,286.44,181.16,377.94,181.16,377.94Z" transform="translate(-11.75 -29.91)"/><path class="cls-9" d="M339.81,263.33a103.51,103.51,0,0,0-9.5-5.81,38.78,38.78,0,0,0-7.2-2.9c-1.74-.43-2.5-.55-.87.22l4.4,2.08-.93,0c-1.17-.06-2.35-.1-3.52-.13-2.3-.06-4.6-.05-6.89-.06-4.67,0-9.28.41-13.93.65a.1.1,0,0,0,0,.19c4.64-.15,9.31.09,13.95.07,2.3,0,4.59.06,6.89.1,1.12,0,2.25.05,3.37.06a27.08,27.08,0,0,0,2.85,0l1.28.6c3.38,1.6,6.75,3.26,10,5.09C339.81,263.53,339.91,263.39,339.81,263.33Z" transform="translate(-11.75 -29.91)"/><path class="cls-9" d="M324.25,238.75c.61,2.82,1.13,5.66,1.83,8.46.33,1.28.65,2.58,1.09,3.83.37,1.06.94,2.26,2.14,2.54,1.37.31,1.81-.86,1.74-2s-.37-2.58-.58-3.85c-.24-1.46-.49-2.92-.7-4.38-.11-.74-.22-1.47-.32-2.2,0-.19-.12-1.59-.2-2,0,0,0,.07-.08.06h-.05s-.08,0-.08-.08,0-.13.07-.2a.12.12,0,0,1,.13,0c.26.16.27.52.35.79.2.72.4,1.43.59,2.15.34,1.35.67,2.7,1,4.06s.58,2.71.87,4.07a6.36,6.36,0,0,1,.16,3.12,2.35,2.35,0,0,1-2.25,1.71c0,.09.1.18.14.28.11.28.19.57.28.86a8.89,8.89,0,0,1,.26.88,2.13,2.13,0,0,1,.07.44c0,.16,0,.32,0,.48a.23.23,0,0,1-.44.14c-.07-.15-.17-.26-.25-.4a2.15,2.15,0,0,1-.18-.48,8.15,8.15,0,0,1-.22-.85c-.06-.28-.14-.57-.18-.86a4.38,4.38,0,0,1,0-.51,3.3,3.3,0,0,1-1.59-.67,5.38,5.38,0,0,1-1.58-2.61c-.39-1.18-.67-2.39-1-3.6a52.51,52.51,0,0,1-1.48-9.06A.26.26,0,0,1,324.25,238.75Z" transform="translate(-11.75 -29.91)"/><path class="cls-9" d="M353.05,246.78c.21,1.39.32,2.8.59,4.18s.59,2.72,1,4a14.18,14.18,0,0,0,1.58,3.66,13.7,13.7,0,0,0,2.62,2.86,23.6,23.6,0,0,0,6.44,3.87,31.1,31.1,0,0,0,3.61,1.19c.64.17,1.29.3,1.94.41a4,4,0,0,1,1.56.42.32.32,0,0,1-.05.54,5.7,5.7,0,0,1-2.9,0,20.2,20.2,0,0,1-3.09-.65,22.39,22.39,0,0,1-5.77-2.66,18.53,18.53,0,0,1-4.77-4.18,13.87,13.87,0,0,1-2.43-5.83,28.61,28.61,0,0,1-.59-7.83A.14.14,0,0,1,353.05,246.78Z" transform="translate(-11.75 -29.91)"/><path class="cls-9" d="M191.87,368.33a34.35,34.35,0,0,1,4.24,1.8c1.46.67,2.93,1.34,4.39,2,2.86,1.37,5.71,2.78,8.52,4.25,5.66,2.95,11.31,5.94,16.89,9,2.91,1.62,9.17,5.06,9.43,5.41.13.16-.07.44-.25.37-5.82-2.56-11.5-5.39-17.19-8.22s-11.35-5.66-16.88-8.75c-1.54-.86-3.05-1.76-4.57-2.63a39.57,39.57,0,0,1-4.75-2.89C191.56,368.64,191.66,368.27,191.87,368.33Z" transform="translate(-11.75 -29.91)"/><path class="cls-9" d="M385.35,254.91a.2.2,0,0,0-.39,0c.11,13-1.89,27.47-11.88,36.78-10.94,10.2-26.73,11.42-40.95,11.3-8.15-.07-16.3-.28-24.45,0s-16.47.66-24.61,1.7a13.4,13.4,0,0,0-8.36,4,43.58,43.58,0,0,0-5.54,8q-6.15,10.2-11.92,20.62Q245.79,358,236,379.56q-1.22,2.69-2.4,5.37c0,.12.13.22.18.1q9.91-21.66,21.33-42.57,5.69-10.47,11.77-20.71c1.9-3.21,3.75-6.5,5.87-9.57,1.87-2.71,4.22-5.27,7.47-6.25a29.63,29.63,0,0,1,6.08-.88c2.08-.2,4.17-.37,6.25-.52q6.1-.45,12.22-.67c8.22-.3,16.43-.2,24.66-.05,14.28.26,29.87-.23,41.71-9.32a33.63,33.63,0,0,0,11-15.37,60.83,60.83,0,0,0,3.18-19.31C385.4,258.18,385.39,256.55,385.35,254.91Z" transform="translate(-11.75 -29.91)"/><path class="cls-9" d="M299.87,311.72c-2.92,0-5.83.18-8.74.27a34.37,34.37,0,0,0-7.23.65c-2.2.55-4,.81-5.76,3.28-2.25,3.08-14.51,26.77-19.66,37.26q-2.14,4.35-4.22,8.75c-1.43,3-2.7,6.12-4.12,9.15,0,.11.11.21.17.09,1.26-2.53,2.66-5,4-7.5s2.57-5.05,3.84-7.58q3.83-7.66,7.68-15.33c2.55-5.07,5.64-10,8.23-15,2.17-4.24,5.13-10,7.21-10.88a33.91,33.91,0,0,1,9-2.19c3.21-.22,6.43-.42,9.63-.7A.12.12,0,0,0,299.87,311.72Z" transform="translate(-11.75 -29.91)"/><path class="cls-5" d="M364.07,160c2.74,10.83,7.85,23.37,5.35,34.67-2,8.86-8.5,15.88-15.69,21-15.81,11.28-40,17.28-55.69,2.52-6.29-5.9-10.07-20.09-3.08-27,3.59-3.55,8.39-5.18,12.81-7.41A20.39,20.39,0,0,0,319,170.08c3.29-12.36.49-20.34-.94-32.68a8.82,8.82,0,0,1,1.65-7,23.44,23.44,0,0,1,13.49-8.2c5.48-.55,11.65,3.35,16.44,5.58s7.45,5.13,8.86,10.33C360.48,145.38,362.22,152.68,364.07,160Z" transform="translate(-11.75 -29.91)"/><path class="cls-5" d="M366.48,164.82c-3.15-9.76-6.49-19.45-9.77-29.17a0,0,0,1,0-.09,0c2.46,8.07,4.81,16.17,7.38,24.21s5.65,15.82,7.47,23.9c4.09,18.13-13.11,29.39-28.77,31.68-.71.1-.47,1.23.25,1.1,13.69-2.45,29-10.43,30.05-26.07C373.58,181.94,369.05,172.81,366.48,164.82Z" transform="translate(-11.75 -29.91)"/><path class="cls-5" d="M318.77,136.26c0-.19-.33-.12-.3.07,1.61,10.11,4.42,21.74.51,31.63a25.87,25.87,0,0,1-9.63,12c-3.44,2.31-7.4,3.26-11.17,4.84-14.75,6.18-10.63,27,2.2,32.76.27.12.49-.34.22-.47-9.14-4.65-14.08-15.5-9.39-25.18,3.77-7.77,14.09-7.67,20.36-12.73C324.56,168.65,322.07,150.74,318.77,136.26Z" transform="translate(-11.75 -29.91)"/><path class="cls-10" d="M346,177.13c-6.77,14.63-29.9,48.57-41,50.11-9.86,1.37-34.27-4.3-42.49-8.81-3.78-2.08,5.73-30.09,12.08-28.76,7.93,1.66,18.66,5.57,26,6,2.6.16,15.13-8.79,37.2-23.32C346,167,349.8,168.89,346,177.13Z" transform="translate(-11.75 -29.91)"/><path class="cls-10" d="M261.76,193.16s-19.63-3-20.64-2.85-.8,1.63-.68,2.77a10.88,10.88,0,0,0,.86,1.89c1.48,2.91,4,8.12,0,9.3-5.2,1.55-10.82-10.14-11.41-12.1a6.26,6.26,0,0,1,.15-2.71c.71-3.21,2.93-7.88,6.71-9.08,5.19-1.65,11.11-.93,16.29-.67Z" transform="translate(-11.75 -29.91)"/><path class="cls-5" d="M261.76,193.16s-19.63-3-20.64-2.85-.8,1.63-.68,2.77a10.88,10.88,0,0,0,.86,1.89c-4-1.95-8.43-4.12-11.25-5.51.71-3.21,2.93-7.88,6.71-9.08,5.19-1.65,11.11-.93,16.29-.67Z" transform="translate(-11.75 -29.91)"/><path class="cls-10" d="M262.45,218.43c-1-.55-6.3-2.11-13.44-4.58-1.92-5.51-7-16-8.36-18.84-1-3.36-4.92-10-5.23-9.85-.58.28-2.62,1.27-5.2,2.27-3.41,1.32-7.73,2.68-10.83,2.48-1.69-.11-3-.67-3.62-1.94-1.11-2.28,3.78-4.92,9.29-8.56,7.51-5,17-10.65,21.66-9.28,6.86,2,13.64,10.42,15.94,12.68s11.87,6.86,11.87,6.86C272.57,200,263.83,219.15,262.45,218.43Z" transform="translate(-11.75 -29.91)"/><path class="cls-5" d="M239.87,192.92c-.08-.14-.16-.07-.1.11.2.54,1,3,.52,3.22-.92.46-6.41-2.51-8.93-3.35-.14,0-.21.14-.08.18a39.35,39.35,0,0,1,3.7,1.76c1.16.58,4.56,2.58,5.71,2C241.46,196.46,240.21,193.46,239.87,192.92Z" transform="translate(-11.75 -29.91)"/><path class="cls-5" d="M213,206.12c-.68.66-1.43,1.2-1.75.9h0c-.3-.33.26-1.07.94-1.73Z" transform="translate(-11.75 -29.91)"/><path class="cls-7" d="M220.83,205.19c-.71.69-6.09,1.24-8.08,1.14a1,1,0,0,1-.83-.82c0-2,.65-7.37,1.36-8.06.48-.47,2.72-1.64,4.9-3,2.85-1.76,33.45-30.12,33.95-30.26s1.42.62,1.88,1.09,1.2,1.42,1.05,1.92S225.78,197.57,224,200.37C222.53,202.51,221.31,204.72,220.83,205.19Z" transform="translate(-11.75 -29.91)"/><path class="cls-8" d="M220.82,205.2a.79.79,0,0,1-.27.16,26,26,0,0,1-4.62-3.72,17,17,0,0,1-2.87-3.81,1,1,0,0,1,.21-.38,3.38,3.38,0,0,1,.35-.27c.65,1.32,2.62,4.54,7.51,7.63A2.62,2.62,0,0,1,220.82,205.2Z" transform="translate(-11.75 -29.91)"/><rect class="cls-5" x="224.12" y="186.53" width="2.23" height="13.63" rx="0.73" transform="translate(194.75 -132.8) rotate(45.74)"/><rect class="cls-8" x="223.23" y="190.34" width="1.3" height="8.66" rx="0.43" transform="translate(195.22 -131.44) rotate(45.73)"/><rect class="cls-5" x="222.77" y="194.91" width="0.38" height="1.3" transform="translate(-84.95 181.2) rotate(-44.26)"/><path class="cls-10" d="M249,213.85c-2.44-.84-4.62-1.56-6.11-2a18.42,18.42,0,0,1-11-8.1c-2.34-3.45-14.34-7.14-8.5-10.76s16.29,5.24,17.3,3.72a2.38,2.38,0,0,0-.09-1.69C242,197.81,247.09,208.34,249,213.85Z" transform="translate(-11.75 -29.91)"/><path class="cls-6" d="M312.4,186l24.26,9.73s7.66-10.67,11.07-17.18c4.5-8.6,2.36-12.29-8.74-8C331.56,173.39,312.4,186,312.4,186Z" transform="translate(-11.75 -29.91)"/><path class="cls-5" d="M333.7,194.5c.28.05,2.8,1,3,1.09.86-1.28,1.72-2.57,2.6-3.84.44-.63.9-1.26,1.36-1.88s1.05-1.48,1.5-2.09c.07-.09.2,0,.13.09-.5.84-.91,1.46-1.35,2.18s-.81,1.3-1.23,1.93c-.9,1.33-1.8,2.79-2.76,4.08a25,25,0,0,1-3.26-1.48S333.66,194.49,333.7,194.5Z" transform="translate(-11.75 -29.91)"/><path class="cls-5" d="M315.79,184.64c3.63,1.17,7.23,2.39,10.78,3.77,1.77.69,3.54,1.41,5.29,2.15s3.42,1.67,5.18,2.38c.1,0,0,.19-.07.15-1.71-.81-3.56-1.39-5.31-2.1s-3.53-1.42-5.3-2.11c-3.54-1.39-7.07-2.79-10.64-4.09C315.62,184.75,315.69,184.61,315.79,184.64Z" transform="translate(-11.75 -29.91)"/><path class="cls-6" d="M320.5,243.76l68.91,5.57s-17.64-60.12-31.84-75.3c-6.46-6.9-12.78-5.85-18.14-1.4-1.33,1.11-17.89,22.13-19.29,29.45-1.24,6.48,4,13.66,4,13.66Z" transform="translate(-11.75 -29.91)"/><path class="cls-5" d="M330.71,183.77c-2.08,3.31-4.34,6.51-6.43,9.8a47.57,47.57,0,0,0-2.91,5,13,13,0,0,0-1.42,5.58,10.09,10.09,0,0,1,.11-3,13.19,13.19,0,0,1,.88-2.82,39.16,39.16,0,0,1,2.83-5.17c1-1.5,2-3,3.07-4.45.17-.51.38-1,.57-1.52a18.7,18.7,0,0,1,1.09-2.14,19.38,19.38,0,0,1-.8,2.25c-.1.21-.19.4-.27.61C328.48,186.56,329.58,185.14,330.71,183.77Z" transform="translate(-11.75 -29.91)"/><path class="cls-2" d="M375.68,209.05a46,46,0,0,1-8.39,2.65,9.19,9.19,0,0,1-2.57.1,4,4,0,0,1-2.34-1,8.16,8.16,0,0,1-2-4.67,57.6,57.6,0,0,1-.49-6,2.83,2.83,0,0,0,0-.3c-.06-1.3-.12-2.61-.26-3.91a27,27,0,0,0-.9-5,12.16,12.16,0,0,0-2.28-4.47,9.22,9.22,0,0,0-4-2.87,14,14,0,0,0-5-.63,43,43,0,0,0-6.94.94l-.25,0-2.86.61c-2.74.57-5.48,1.17-8.27,1.49.06-.08.11-.16.16-.24,2.71-.32,5.38-.9,8.07-1.48l3-.63.24,0a40.45,40.45,0,0,1,6.86-1,14.57,14.57,0,0,1,5.08.63,9.67,9.67,0,0,1,4.18,2.95,12.66,12.66,0,0,1,2.31,4.57,26.94,26.94,0,0,1,.9,5c.12,1.23.19,2.46.25,3.69,0,.1,0,.2,0,.29a60.53,60.53,0,0,0,.47,6.18,8,8,0,0,0,1.92,4.56c1.21,1.19,3.1,1.16,4.72.89a46.79,46.79,0,0,0,8.36-2.61Zm-40.83,29.43a8.13,8.13,0,0,0-4.46-2.44,3.92,3.92,0,0,0-2.49.65,8.71,8.71,0,0,0-1.95,1.68,36.39,36.39,0,0,0-3.89,5.52l.23,0a36.49,36.49,0,0,1,3.81-5.4c1.11-1.21,2.57-2.42,4.26-2.24a7.92,7.92,0,0,1,4.33,2.38c2.22,2.08,4.1,4.5,6.18,6.76l.4,0C339.11,243.15,337.17,240.64,334.85,238.48Zm48-9.6q-.36,0-.72.06c-3.46.37-6.49,2.31-9,4.57a66.38,66.38,0,0,0-6.87,7.55c-1.7,2-3.38,4.11-5.26,6l.32,0c1.84-1.85,3.46-3.86,5.12-5.86a68.75,68.75,0,0,1,6.82-7.53c2.5-2.26,5.49-4.18,8.88-4.55q.39,0,.78-.06C382.91,229,382.88,229,382.86,228.88ZM369.4,194.06a16.83,16.83,0,0,0-8.45,4.71c-.28.26-.55.53-.82.8l-.25.24c-2,2.09-3.83,4.39-5.63,6.65-1.65,2.07-3.27,4.17-5.11,6.07a2.13,2.13,0,0,1-.21.22c-.44.46-.91.91-1.4,1.35a14,14,0,0,1-4.23,2.69,9.36,9.36,0,0,1-4.95.38,12.39,12.39,0,0,1-4.6-2,25.51,25.51,0,0,1-3.87-3.26c-2.44-2.36-4.54-5-7.1-7.33a11.32,11.32,0,0,0-2.75-1.87l0,.25a10.55,10.55,0,0,1,2.63,1.79c2.53,2.26,4.63,5,7.06,7.36a26.9,26.9,0,0,0,3.92,3.29,12.34,12.34,0,0,0,4.7,2,9.5,9.5,0,0,0,5.09-.39,14,14,0,0,0,4.3-2.76c.53-.48,1.05-1,1.53-1.49a2.18,2.18,0,0,0,.22-.21c1.79-1.89,3.38-4,5-6a79.2,79.2,0,0,1,5.46-6.5l.25-.25c.3-.32.62-.63,1-.94a16.56,16.56,0,0,1,8.37-4.68Zm-7.3,22.59a8.25,8.25,0,0,0-4.42-2.51c-2.71-.73-5.5-1-8.23-1.55l-.31-.06c-.49-.1-1-.19-1.48-.3a26.22,26.22,0,0,1-4.86-1.47,12.34,12.34,0,0,1-4.18-2.76,9.35,9.35,0,0,1-2.39-4.34,13.94,13.94,0,0,1-.05-5,59.27,59.27,0,0,1,2.71-9.79c.54-1.63,1.09-3.28,1.59-4.94a2.33,2.33,0,0,1,.07-.25,43.3,43.3,0,0,0,1.11-4.63,18.44,18.44,0,0,0-.1-7.93l-.17.1a18.22,18.22,0,0,1,.06,7.78,44.44,44.44,0,0,1-1.14,4.72,1.83,1.83,0,0,0-.08.25c-.48,1.61-1,3.22-1.56,4.82a61.6,61.6,0,0,0-2.75,9.84,14.16,14.16,0,0,0,.05,5.11,9.59,9.59,0,0,0,2.45,4.49A12.44,12.44,0,0,0,342.7,211a26.31,26.31,0,0,0,4.9,1.47c.44.1.89.19,1.33.27l.3.05c2.81.52,5.65.84,8.38,1.57a8,8,0,0,1,4.31,2.41c1.05,1.35.8,3.22.35,4.8a56.24,56.24,0,0,1-4.18,9.27,61.72,61.72,0,0,0-4.16,9.32,15.58,15.58,0,0,0-.82,5,8.4,8.4,0,0,0,.12,1.22h.16a8.42,8.42,0,0,1-.14-1.23,15.41,15.41,0,0,1,.84-5,61.67,61.67,0,0,1,4.17-9.28,57.12,57.12,0,0,0,4.21-9.29,9.11,9.11,0,0,0,.41-2.54A4,4,0,0,0,362.1,216.65Z" transform="translate(-11.75 -29.91)"/><path class="cls-5" d="M342.65,214.29a53.45,53.45,0,0,0-8,.83c-1.31.25-2.59.57-3.88.91-.64.17-1.28.31-1.93.46a8.37,8.37,0,0,1-2.06.26c-.06,0-.06.09,0,.1a14.28,14.28,0,0,0,2,.08,15,15,0,0,0,1.89-.24c1.33-.25,2.64-.56,4-.81,2.67-.52,5.34-1,8.05-1.37C342.79,214.49,342.77,214.28,342.65,214.29Z" transform="translate(-11.75 -29.91)"/><path class="cls-5" d="M349.09,217a60.6,60.6,0,0,0-6.59-.71c-1.1,0-2.2,0-3.3,0l-1.58.08c-.58,0-1.16.16-1.74.19-.06,0-.06.1,0,.09.55,0,1.1.07,1.64.09l1.65.05,3.31.12c2.2.05,4.4.13,6.6.26C349.2,217.22,349.2,217.05,349.09,217Z" transform="translate(-11.75 -29.91)"/><path class="cls-10" d="M348.54,170.88c.07,1.24-3.25,10.44-8.65,11.77-1.76.42-4.52-9.07-4.52-9.07l-.37-.65-5.09-9.16,9.34-10.8,1.38-1.47s1.23,2.6,2.72,5.85l.22.46c.09.18.17.35.25.53.23.48.46,1,.68,1.47s.34.74.5,1.15.34.79.51,1.19A67.87,67.87,0,0,1,348.54,170.88Z" transform="translate(-11.75 -29.91)"/><path class="cls-5" d="M343.35,157.35A21,21,0,0,1,335,172.93l-5.09-9.16,9.34-10.8,1.38-1.47S341.86,154.1,343.35,157.35Z" transform="translate(-11.75 -29.91)"/><path class="cls-10" d="M312.7,149.93c.59,18.38,11.67,20.1,15.63,20,3.6-.12,15.84-1,17.15-19.34s-7.43-23.88-15.67-24S312.1,131.54,312.7,149.93Z" transform="translate(-11.75 -29.91)"/><path class="cls-5" d="M315.19,146.67c.43-.08.81-.21,1.23-.33a2,2,0,0,0,1.18-.58.65.65,0,0,0,0-.79,1.63,1.63,0,0,0-1.62-.3,2.4,2.4,0,0,0-1.45.93A.7.7,0,0,0,315.19,146.67Z" transform="translate(-11.75 -29.91)"/><path class="cls-5" d="M327.78,145.94a10.47,10.47,0,0,1-1.25-.19,2.11,2.11,0,0,1-1.25-.44.66.66,0,0,1,0-.8,1.63,1.63,0,0,1,1.58-.47,2.39,2.39,0,0,1,1.54.76A.7.7,0,0,1,327.78,145.94Z" transform="translate(-11.75 -29.91)"/><path class="cls-5" d="M325.12,150.61c0-.05.1,0,.1.11,0,1.25.2,2.68,1.35,3.06,0,0,0,.08,0,.08C325.17,153.7,324.91,151.8,325.12,150.61Z" transform="translate(-11.75 -29.91)"/><path class="cls-5" d="M326.19,149.27c2-.22,2.29,3.81.43,4S324.51,149.45,326.19,149.27Z" transform="translate(-11.75 -29.91)"/><path class="cls-5" d="M327,149.42c.37.21.74.59,1.17.6s.84-.44,1.13-.86c0,0,.07,0,.07,0a1.48,1.48,0,0,1-1,1.76c-.74.15-1.34-.49-1.58-1.26C326.74,149.56,326.85,149.34,327,149.42Z" transform="translate(-11.75 -29.91)"/><path class="cls-5" d="M318.15,150.83s-.09.07-.08.12c.13,1.25.08,2.7-1,3.2,0,0,0,.08,0,.07C318.43,153.92,318.48,152,318.15,150.83Z" transform="translate(-11.75 -29.91)"/><path class="cls-5" d="M316.94,149.62c-2,0-1.87,4,0,4S318.63,149.61,316.94,149.62Z" transform="translate(-11.75 -29.91)"/><path class="cls-5" d="M316.1,149.91c-.31.23-.61.63-1,.67s-.78-.38-1.08-.78c0-.05-.06,0-.06,0,0,.78.29,1.57,1,1.69s1.15-.57,1.31-1.35C316.35,150,316.23,149.82,316.1,149.91Z" transform="translate(-11.75 -29.91)"/><path class="cls-5" d="M326,160.85c-.27.33-.52.76-1,.85a3.42,3.42,0,0,1-1.38-.15s-.07,0,0,.07a1.67,1.67,0,0,0,1.65.49,1.33,1.33,0,0,0,.86-1.21C326.12,160.82,326,160.81,326,160.85Z" transform="translate(-11.75 -29.91)"/><path class="cls-5" d="M321,159.1a5.17,5.17,0,0,0,2,1.59,2.29,2.29,0,0,0,1.4.09c1-.26,1-1.19.85-2a5.23,5.23,0,0,0-.44-1.21A6.65,6.65,0,0,1,321,159.1Z" transform="translate(-11.75 -29.91)"/><path class="cls-11" d="M323.06,160.69a2.29,2.29,0,0,0,1.4.09c1-.26,1-1.19.85-2A2.38,2.38,0,0,0,323.06,160.69Z" transform="translate(-11.75 -29.91)"/><path class="cls-5" d="M320.49,156.64s-.15,1.88-.1,2.76c0,.08.22.11.52.11,0,0,0,0,0,0a4.21,4.21,0,0,0,4-1.8c.06-.09-.06-.17-.14-.11a6.28,6.28,0,0,1-3.76,1.31c-.07-.24.37-3.21.23-3.21a7.39,7.39,0,0,0-2,.57c.2-3.93,1-7.8,1.16-11.72a.12.12,0,0,0-.23,0,64,64,0,0,0-1.79,12.56C318.37,157.58,320.14,156.81,320.49,156.64Z" transform="translate(-11.75 -29.91)"/><path class="cls-5" d="M344.16,152c-2-.13-7.19-5.65-7.31-15.31,0,0,.71,8.67,1.36,9.94s-2.9-3.11-3.11-10.89a31.56,31.56,0,0,1-8,4.11c-3.68,1-5.93,1-6.19.71s5.16-2,6.63-3.64c0,0-9.8,4.51-14.31,4.84-.53,0-1.11-10.69,5.88-15.22s18,.43,21,3.31c0,0,3.49.51,7.26,5.68S346.31,152.16,344.16,152Z" transform="translate(-11.75 -29.91)"/><path class="cls-6" d="M327.53,156.58a5.78,5.78,0,0,1-5.27-6.23h0a5.77,5.77,0,1,1,6.71,6.18A6.28,6.28,0,0,1,327.53,156.58Zm-4.5-6.17a5,5,0,1,0,5.4-4.56,4.66,4.66,0,0,0-1.24.05A5,5,0,0,0,323,150.41Z" transform="translate(-11.75 -29.91)"/><path class="cls-6" d="M315.36,157.14c-2.37.12-4.42-2.37-4.58-5.55a6.94,6.94,0,0,1,1-4.09,3.59,3.59,0,0,1,6.15-.3,6.91,6.91,0,0,1,1.42,4c.14,3-1.46,5.57-3.64,5.93A2.33,2.33,0,0,1,315.36,157.14Zm-2.91-9.22a6.13,6.13,0,0,0-.9,3.63c.14,2.75,1.83,4.92,3.77,4.82s3.41-2.41,3.28-5.16a6.14,6.14,0,0,0-1.25-3.53,3.09,3.09,0,0,0-2.52-1.3l-.29,0A3.16,3.16,0,0,0,312.45,147.92Z" transform="translate(-11.75 -29.91)"/><path class="cls-6" d="M322.49,151l.46-.62c-.91-.69-3-1.58-4.31,0l.59.5C320.42,149.47,322.4,151,322.49,151Z" transform="translate(-11.75 -29.91)"/><path class="cls-6" d="M348.25,151.23l.67-.38c-.18-.31-1.82-3-3.55-3.24S333.46,148.9,333,149l.11.77c2.95-.43,10.9-1.5,12.15-1.36S347.81,150.48,348.25,151.23Z" transform="translate(-11.75 -29.91)"/><path class="cls-10" d="M345.73,157.34a4.06,4.06,0,0,1-.82.32,2.66,2.66,0,0,1-.86.12,2.5,2.5,0,0,1-1.09-.21,3,3,0,0,1-.75-.45,3.46,3.46,0,0,1-.82-.94l.43-5s3.31-6.18,6.06-5.07S348.64,155.85,345.73,157.34Z" transform="translate(-11.75 -29.91)"/><path class="cls-5" d="M347.25,148.57c.05,0,.06.05,0,.08-2,1.11-2.91,3.22-3.45,5.36a1.72,1.72,0,0,1,2.5-.77c.06,0,0,.13-.05.12a1.92,1.92,0,0,0-2,.92,8.9,8.9,0,0,0-.8,1.81c-.08.2-.43.14-.39-.09,0,0,0,0,0-.05C342.71,153.24,344.36,149.19,347.25,148.57Z" transform="translate(-11.75 -29.91)"/><path class="cls-2" d="M345.39,156.6a.85.85,0,1,1-.79-.92A.87.87,0,0,1,345.39,156.6Z" transform="translate(-11.75 -29.91)"/><path class="cls-2" d="M347,155.12a.6.6,0,1,1-.55-.65A.59.59,0,0,1,347,155.12Z" transform="translate(-11.75 -29.91)"/><path class="cls-10" d="M360.73,177.33c12.53,19.41,29,51.89,20,58.12C366,245.68,325.05,249,315.69,249.33c-4.05.16-9.95-26.65-7-29.82s45.89-2.11,46.4-4.71c.29-1.47-2.15-14.52-5-30.73C346.7,165.37,357.15,171.77,360.73,177.33Z" transform="translate(-11.75 -29.91)"/><path class="cls-10" d="M315.86,217.92s-12.26-1.09-20.31-1.42c-4.49-.19-12.22.18-15.58,1.56-5,2.05-24.75,13.85-22,18.7,2.5,4.38,18.15-7.91,18.15-7.91s-16.89,11-12.91,15.73S283,233.07,283,233.07,265.93,244.76,270.8,249c3.69,3.19,18.86-10.71,18.86-10.71s-14.63,10.16-11,13.6c4,3.81,18.84-8.14,18.84-8.14,10.74,7.2,18.8,6.24,24.45,4.87C323.34,248.27,315.86,217.92,315.86,217.92Z" transform="translate(-11.75 -29.91)"/><path class="cls-5" d="M281.73,224.67c-2,1.22-4.09,2.44-6,3.84s-3.78,2.86-5.56,4.43a39.43,39.43,0,0,0-6.33,6.77c3.6-4.18,10.38-9.29,12.29-10.69s3.76-2.88,5.67-4.28A0,0,0,0,0,281.73,224.67Z" transform="translate(-11.75 -29.91)"/><path class="cls-5" d="M286.9,231.49c-2.52,1.67-5.09,3.24-7.55,5s-4.6,3.68-6.91,5.61c-.18.15,0,.2.15.06,2.38-1.85,4.73-3.37,7.14-5.18s4.75-3.73,7.22-5.45C287,231.52,286.94,231.47,286.9,231.49Z" transform="translate(-11.75 -29.91)"/><path class="cls-5" d="M292.39,236.55a68.1,68.1,0,0,0-10.95,8.56c-.17.16,0,.2.2,0,3.59-2.91,6.38-5.23,10.84-8.47C292.55,236.64,292.48,236.5,292.39,236.55Z" transform="translate(-11.75 -29.91)"/><path class="cls-5" d="M318.2,217.51c-2.85-.24-5.95-.1-8.88-.21-2.56-.1-4.95-.45-7.44-.61-5.11-.33-12.64-.81-17.72,0-3.68.58-8.24,3.58-10.83,4.8a.1.1,0,0,0,.09.17c4.86-1.74,7.79-3.82,12.19-4.46,5.06-.72,18.25.27,23.34.56,3,.17,6.26-.13,9.24,0A.12.12,0,0,0,318.2,217.51Z" transform="translate(-11.75 -29.91)"/><path class="cls-6" d="M376.75,202l-26-2.23s-2-13-2.15-20.32c-.15-9.71,3.42-12,11.4-3.2C365.29,182.13,376.75,202,376.75,202Z" transform="translate(-11.75 -29.91)"/><path class="cls-5" d="M353.89,200a30.25,30.25,0,0,0-3.14-.36c-.2-1.54-.38-3.07-.6-4.6-.11-.76-.23-1.53-.37-2.29s-.27-1.8-.4-2.54c0-.12-.17-.1-.16,0,.07,1,.16,1.71.23,2.56s.14,1.52.23,2.27c.21,1.6.35,3.31.63,4.9a26.54,26.54,0,0,0,3.57.14C353.93,200.11,353.93,200,353.89,200Z" transform="translate(-11.75 -29.91)"/><path class="cls-5" d="M374.32,199.27c-3.77-.58-7.53-1.11-11.33-1.48-1.89-.18-3.79-.34-5.68-.46s-3.81-.05-5.7-.21a.09.09,0,0,0,0,.17c1.89.05,3.8.36,5.69.51l5.68.5c3.78.35,7.57.7,11.34,1.14C374.42,199.45,374.42,199.29,374.32,199.27Z" transform="translate(-11.75 -29.91)"/></g><g id="Table"><rect class="cls-7" x="48.91" y="216.15" width="379.42" height="13.49"/><rect class="cls-9" x="62.49" y="229.64" width="352.26" height="13.49"/><polygon class="cls-9" points="62.52 432.46 57.06 432.46 72.94 243.13 86.86 243.13 62.52 432.46"/><polygon class="cls-5" points="86.85 243.13 85.22 255.8 71.88 255.8 72.94 243.13 86.85 243.13"/><polygon class="cls-9" points="414.72 432.46 420.18 432.46 404.3 243.13 390.38 243.13 414.72 432.46"/><polygon class="cls-5" points="390.38 243.13 392.01 255.8 405.36 255.8 404.3 243.13 390.38 243.13"/></g><g id="Devices"><polygon class="cls-5" points="144.33 216.14 222.59 216.14 203.58 163.91 125.32 163.91 144.33 216.14"/><polygon class="cls-7" points="141.55 216.14 219.82 216.14 200.81 163.91 122.54 163.91 141.55 216.14"/><polygon class="cls-5" points="122.54 163.92 141.56 216.15 173.21 216.15 129.87 163.92 122.54 163.92"/><polygon class="cls-9" points="127.61 216.14 137.13 216.14 145.68 201.34 136.16 201.34 127.61 216.14"/><polygon class="cls-7" points="145.68 201.34 145.68 216.15 137.13 216.15 145.68 201.34"/><polygon class="cls-9" points="181.04 216.14 190.56 216.14 199.11 201.34 189.59 201.34 181.04 216.14"/><polygon class="cls-5" points="199.11 201.34 199.11 216.15 190.56 216.15 199.11 201.34"/><rect class="cls-4" x="254.85" y="213.31" width="63.26" height="2.84"/><rect class="cls-8" x="254.85" y="213.31" width="31.84" height="2.84"/><polygon class="cls-4" points="283.27 216.14 221.61 216.14 213.55 174.27 275.2 174.27 283.27 216.14"/><path class="cls-8" d="M263.91,225.11a3.38,3.38,0,0,1-3.43,3.75,4.18,4.18,0,0,1-4.08-3.75,3.38,3.38,0,0,1,3.43-3.75A4.18,4.18,0,0,1,263.91,225.11Z" transform="translate(-11.75 -29.91)"/></g><g id="Lamp"><polygon class="cls-5" points="95.52 209.22 93.49 208.95 103.92 129.55 141.81 108.76 142.8 110.55 105.82 130.85 95.52 209.22"/><path class="cls-6" d="M113.73,160.11a2.89,2.89,0,1,0,2.89-2.89A2.88,2.88,0,0,0,113.73,160.11Z" transform="translate(-11.75 -29.91)"/><path class="cls-6" d="M150.77,139.56a2.88,2.88,0,1,0,2.88-2.88A2.88,2.88,0,0,0,150.77,139.56Z" transform="translate(-11.75 -29.91)"/><polygon class="cls-6" points="161.29 112.29 147.74 127.42 141.48 119.7 137.67 114.99 147.83 103.66 152.93 106.93 161.29 112.29"/><polygon class="cls-12" points="161.29 112.29 147.74 127.42 141.48 119.7 152.93 106.93 161.29 112.29"/><polygon class="cls-6" points="180.94 119.76 157.3 146.14 141.61 126.11 159.32 106.35 180.94 119.76"/><polygon class="cls-6" points="113.06 216.15 78.09 216.15 80.24 205.16 110.91 205.16 113.06 216.15"/></g><g id="Icons"><path class="cls-1" d="M317.54,48,281.39,83.86A6.27,6.27,0,1,1,272.55,75l36.15-35.9Z" transform="translate(-11.75 -29.91)"/><polygon class="cls-4" points="305.8 18.07 295.52 28.27 288.69 17.37 296.95 9.16 305.8 18.07"/><path class="cls-1" d="M270.16,86.18h0a1.6,1.6,0,0,1,0-2.25l8.18-8.12,2.24,2.25-8.18,8.12A1.59,1.59,0,0,1,270.16,86.18Z" transform="translate(-11.75 -29.91)"/><path class="cls-1" d="M280.59,78.06l-8.18,8.13a1.59,1.59,0,0,1-2.24-2.26l1.38-1.37,6.8-6.75Z" transform="translate(-11.75 -29.91)"/><rect class="cls-6" x="301.07" y="41.8" width="18.77" height="8.85" transform="translate(112.75 -236.54) rotate(45.2)"/><path class="cls-6" d="M314.43,51.06l-8.84-8.9,7.46-7.41a6.26,6.26,0,0,1,8.87,0h0a6.27,6.27,0,0,1,0,8.87Z" transform="translate(-11.75 -29.91)"/><path class="cls-6" d="M294.83,70.53,281.4,83.86a6.25,6.25,0,0,1-7.6,1l-1.39,1.38a1.59,1.59,0,0,1-2.24-2.26l1.38-1.37a6.24,6.24,0,0,1,1-7.59l4.53-4.5Z" transform="translate(-11.75 -29.91)"/><rect class="cls-1" x="62.8" y="167.9" width="19.9" height="70.03" transform="translate(263.92 100.25) rotate(90)"/><rect class="cls-6" x="93.23" y="198.07" width="14.95" height="9.69" transform="translate(291.87 72.3) rotate(90)"/><rect class="cls-13" x="81.49" y="198.07" width="14.95" height="9.69" transform="translate(280.13 84.04) rotate(90)"/><rect class="cls-14" x="69.75" y="198.07" width="14.95" height="9.69" transform="translate(268.39 95.78) rotate(90)"/><rect class="cls-15" x="58.01" y="198.07" width="14.95" height="9.69" transform="translate(256.65 107.52) rotate(90)"/><rect class="cls-16" x="46.27" y="198.07" width="14.95" height="9.69" transform="translate(244.91 119.26) rotate(90)"/><g class="cls-17"><rect x="93.23" y="198.07" width="14.95" height="9.69" transform="translate(291.87 72.3) rotate(90)"/><rect class="cls-18" x="81.49" y="198.07" width="14.95" height="9.69" transform="translate(280.13 84.04) rotate(90)"/><rect class="cls-19" x="69.75" y="198.07" width="14.95" height="9.69" transform="translate(268.39 95.78) rotate(90)"/><rect class="cls-20" x="58.01" y="198.07" width="14.95" height="9.69" transform="translate(256.65 107.52) rotate(90)"/><rect class="cls-21" x="46.27" y="198.07" width="14.95" height="9.69" transform="translate(244.91 119.26) rotate(90)"/></g><path class="cls-5" d="M42.49,204.17a1.26,1.26,0,1,1,1.26-1.26A1.25,1.25,0,0,1,42.49,204.17Z" transform="translate(-11.75 -29.91)"/><rect class="cls-1" x="53.94" y="146.5" width="19.9" height="70.03" transform="translate(135.31 -21.92) rotate(45)"/><rect class="cls-6" x="76.18" y="156.9" width="14.95" height="9.69" transform="translate(127.13 -41.68) rotate(45)"/><rect class="cls-13" x="67.88" y="165.2" width="14.95" height="9.69" transform="translate(130.57 -33.38) rotate(45)"/><rect class="cls-14" x="59.57" y="173.51" width="14.95" height="9.69" transform="translate(134.01 -25.08) rotate(45)"/><rect class="cls-15" x="51.27" y="181.81" width="14.95" height="9.69" transform="translate(137.45 -16.78) rotate(45)"/><rect class="cls-16" x="42.97" y="190.11" width="14.95" height="9.69" transform="translate(140.88 -8.48) rotate(45)"/><g class="cls-22"><rect x="76.18" y="156.9" width="14.95" height="9.69" transform="translate(127.13 -41.68) rotate(45)"/><rect class="cls-18" x="67.88" y="165.2" width="14.95" height="9.69" transform="translate(130.57 -33.38) rotate(45)"/><rect class="cls-19" x="59.57" y="173.51" width="14.95" height="9.69" transform="translate(134.01 -25.08) rotate(45)"/><rect class="cls-20" x="51.27" y="181.81" width="14.95" height="9.69" transform="translate(137.45 -16.78) rotate(45)"/><rect class="cls-21" x="42.97" y="190.11" width="14.95" height="9.69" transform="translate(140.88 -8.48) rotate(45)"/></g><path class="cls-5" d="M43.38,203.8a1.26,1.26,0,1,1,0-1.78A1.24,1.24,0,0,1,43.38,203.8Z" transform="translate(-11.75 -29.91)"/><rect class="cls-1" x="20.79" y="107.73" width="19.9" height="70.03"/><rect class="cls-6" x="23.27" y="109.94" width="14.95" height="9.69"/><rect class="cls-13" x="23.27" y="121.69" width="14.95" height="9.69"/><rect class="cls-14" x="23.27" y="133.43" width="14.95" height="9.69"/><rect class="cls-15" x="23.27" y="145.17" width="14.95" height="9.69"/><rect class="cls-16" x="23.27" y="156.91" width="14.95" height="9.69"/><path class="cls-5" d="M44.54,202.91a2.05,2.05,0,1,1-2-2A2.05,2.05,0,0,1,44.54,202.91Z" transform="translate(-11.75 -29.91)"/><polygon class="cls-3" points="456.89 189.32 409.75 189.32 409.75 128.81 444.75 128.81 456.89 140.34 456.89 189.32"/><rect class="cls-1" x="409.75" y="171.61" width="47.14" height="17.71"/><polygon class="cls-6" points="409.75 171.61 424.67 157.33 438.18 171.61 409.75 171.61"/><polygon class="cls-6" points="428.9 171.61 446.61 149.24 456.89 162.23 456.89 171.61 428.9 171.61"/><path class="cls-2" d="M436.94,177.81a5.29,5.29,0,1,1-5.29-5.28A5.29,5.29,0,0,1,436.94,177.81Z" transform="translate(-11.75 -29.91)"/><polygon class="cls-1" points="444.75 128.81 456.89 140.34 444.75 140.34 444.75 128.81"/><path class="cls-8" d="M432.45,212.34a.31.31,0,0,1,.4.2,2.56,2.56,0,0,0,5-.77v-5.93a.33.33,0,1,1,.65,0v5.93a3.21,3.21,0,0,1-6.26,1A.33.33,0,0,1,432.45,212.34Z" transform="translate(-11.75 -29.91)"/><path class="cls-8" d="M441.05,205.84a.32.32,0,0,1,.32-.33h2.68a2.7,2.7,0,0,1,0,5.39l-2.34,0v3.72a.33.33,0,0,1-.34.32.32.32,0,0,1-.32-.32Zm3,4.43a2.06,2.06,0,0,0,2-2.05,2,2,0,0,0-2-2h-2.34v4.09Z" transform="translate(-11.75 -29.91)"/><path class="cls-8" d="M453.35,210.72a.33.33,0,0,1-.34-.33.34.34,0,0,1,.34-.34h2.95a.34.34,0,0,1,.3.34v3.3a.35.35,0,0,1-.12.24,4.81,4.81,0,1,1,0-7.48.32.32,0,0,1,0,.45.34.34,0,0,1-.47.06,4.14,4.14,0,0,0-2.63-.92,4.14,4.14,0,1,0,0,8.27,4.29,4.29,0,0,0,2.5-.81v-2.78Z" transform="translate(-11.75 -29.91)"/></g></svg>