<svg id="Layer_1" data-name="Layer 1" xmlns="http://www.w3.org/2000/svg" viewBox="0 0 378.04 311.99"><title>branding</title><path d="M249.49,311.24c-40.33-34.18-86.47-55.6-137.61-67.09V141.33c51.15-11.46,97.27-32.91,137.61-67.08Z" transform="translate(-3.68 -36.75)"/><path d="M306.75,192.9q0,65.6,0,131.19c0,14.38-11,25.12-25,24.63a24.1,24.1,0,0,1-23-22.49c-.05-.75-.05-1.5-.05-2.25q0-131.19,0-262.38c0-13.39,9.48-23.9,22.17-24.79a24,24,0,0,1,25.78,23.77c.15,13.75,0,27.49,0,41.24Z" transform="translate(-3.68 -36.75)"/><path d="M52,141.92h50.54V243.45H52Z" transform="translate(-3.68 -36.75)"/><path d="M42.48,244c-5.82-.29-11.5,0-17-.95A26.33,26.33,0,0,1,3.79,217.13q-.21-24.34,0-48.71a26.89,26.89,0,0,1,26.47-26.64c4-.09,8,0,12.22,0Z" transform="translate(-3.68 -36.75)"/><path d="M51.76,252.93H103.7c-1.57,6.32-3.11,12.46-4.64,18.6-3,12.09-6,24.19-9.06,36.28-1.42,5.59-4.41,7.9-10.19,7.93-6.24,0-12.49.09-18.73,0-5.53-.1-9.26-3.69-9.28-9.17C51.7,288.83,51.76,271.1,51.76,252.93Z" transform="translate(-3.68 -36.75)"/><path d="M363.87,114.78a8.57,8.57,0,0,1-5.08,8.09c-9,4.39-17.92,8.73-27,12.92a8.85,8.85,0,0,1-12-4.28A8.7,8.7,0,0,1,324,119.76c9-4.51,18.09-9,27.28-13.11A8.79,8.79,0,0,1,363.87,114.78Z" transform="translate(-3.68 -36.75)"/><path d="M364.76,270.16c-.92,6.75-6.88,11.4-12.48,9-9.81-4.25-19.42-9-29-13.82-4.17-2.12-5.38-7.22-3.42-11.37s6.77-6.45,11-4.56c9.76,4.39,19.43,9,28.86,14C362,264.6,363.12,267.86,364.76,270.16Z" transform="translate(-3.68 -36.75)"/><path d="M357.75,201.75c-4.74,0-9.47.05-14.21,0-5.81-.08-9.82-3.86-9.76-9.08s4-8.83,9.57-8.88q14.4-.11,28.8,0c5.58,0,9.51,3.8,9.57,8.88s-4,9-9.75,9.08C367.23,201.8,362.49,201.75,357.75,201.75Z" transform="translate(-3.68 -36.75)"/></svg>