<svg id="Layer_1" data-name="Layer 1" xmlns="http://www.w3.org/2000/svg" viewBox="0 0 353.58 383.99"><title>creativity</title><path d="M315.75,204.75c5.38,1,10.81,1.72,16.14,2.93a112.11,112.11,0,0,1,86.69,95.14c4.84,38-7,70.57-34.52,97.09-8.51,8.19-15.71,16.7-17.48,28.83H318v-4.15c0-21.5.06-43-.08-64.49,0-2.82.78-4,3.44-5.09a39.94,39.94,0,0,0,25-43.93,40.38,40.38,0,0,0-37.23-33.41c-19-1.29-36.88,11.95-41.33,30.63a40.1,40.1,0,0,0,23.44,46.41c1.37.58,2.76,1.11,4.15,1.66v72.29H247.11c-.16-.58-.38-1.25-.52-1.94a42.46,42.46,0,0,0-14-23.77,112.16,112.16,0,0,1-36.3-61.5c-13.88-63.11,29.13-125.7,93-135.32,2.82-.43,5.63-.92,8.45-1.38Z" transform="translate(-129.95 -204.75)"/><path d="M364.17,522.1c-19.28,22.38-38.15,44.28-57.4,66.64L249.33,522.1Z" transform="translate(-129.95 -204.75)"/><path d="M295.3,451.63V499H247.61V451.63Z" transform="translate(-129.95 -204.75)"/><path d="M318.12,499V451.69h47.7V499Z" transform="translate(-129.95 -204.75)"/><path d="M289.16,317.3a17.59,17.59,0,1,1,16.78,18A17.69,17.69,0,0,1,289.16,317.3Z" transform="translate(-129.95 -204.75)"/><path d="M148.75,401.63l-8.62-20.77,30.47-12.62c2.89,7,5.7,13.74,8.61,20.77Z" transform="translate(-129.95 -204.75)"/><path d="M443,267.21l-8.58-20.78,30.44-12.64c2.89,7,5.68,13.68,8.62,20.76Z" transform="translate(-129.95 -204.75)"/><path d="M140.08,254.64l8.63-20.77,30.45,12.64c-2.93,7.06-5.72,13.79-8.62,20.76Z" transform="translate(-129.95 -204.75)"/><path d="M162.55,306.83v22H130v-22Z" transform="translate(-129.95 -204.75)"/><path d="M450.87,328.77V306.84h32.66v21.93Z" transform="translate(-129.95 -204.75)"/><path d="M443.1,368.19l30.46,12.65c-2.87,6.93-5.64,13.64-8.58,20.77L434.51,389Z" transform="translate(-129.95 -204.75)"/></svg>