<svg id="Layer_1" data-name="Layer 1" xmlns="http://www.w3.org/2000/svg" viewBox="0 0 384 287.75"><title>email (1)</title><path d="M498.75,333.75V510c-.14.2-.36.38-.42.6-5.09,20.35-17.45,30-38.42,30H305.07q-76.48,0-153,0c-10.19,0-19.14-3-26.61-10.07-6-5.64-8.9-12.8-10.75-20.56V333.75a9.93,9.93,0,0,1,1.66.73Q194.2,386.34,272,438.21c23.24,15.5,46.28,15.53,69.58,0q69.54-46.32,139.05-92.67C486.6,341.55,492.7,337.68,498.75,333.75Z" transform="translate(-114.75 -252.89)"/><path d="M114.75,293.25V283.5c.62-2.14,1.16-4.31,1.87-6.42,5.11-15.17,18.46-24.19,35.86-24.19H461c1.12,0,2.25,0,3.37.05,15.25.81,27.76,10.11,32.47,24.16.71,2.11,1.25,4.27,1.87,6.4v9.75c-2.4,9.93-7.29,18.07-16,23.87Q405,368.77,327.45,420.56c-13.85,9.2-27.86,9-41.7-.2Q208.27,368.72,130.8,317.08c-8.19-5.45-13.55-12.77-15.44-22.51A6,6,0,0,0,114.75,293.25Z" transform="translate(-114.75 -252.89)"/></svg>