<svg id="Layer_1" data-name="Layer 1" xmlns="http://www.w3.org/2000/svg" viewBox="0 0 409.6 409.72"><title>graphic</title><path d="M489.4,254.46c-3.2,6.93-8.69,9.11-16.13,8.91-14.26-.38-28.53-.09-42.8-.12-9.15,0-13.81-4.65-13.87-13.73,0-3.29,0-6.59,0-10.07H368c4,2.9,7.54,5.32,10.92,8q49.88,39,59.13,101.65c1.19,8.08,2.87,13.71,11,18.15,12.56,6.81,17.88,23.11,14.54,36.92-3.43,14.21-15.46,25.47-29.15,27.28-15.88,2.1-29.94-4.64-37.14-17.81C387.2,395,394,373.47,413.18,363.8c1.73-.87,2.61-1.65,2.38-3.88-2.7-26.24-11.85-49.88-28.31-70.56-17.83-22.39-40.64-37.3-68.2-45-2.12-.59-3,.08-4.14,1.78-14.79,22.83-45.85,22.84-60.6,0-1.26-2-2.34-2.26-4.51-1.67-50.44,13.73-88.54,57.28-95.46,109.06-.73,5.45-.79,9.17,5.36,12.61,13.28,7.41,18.81,21.82,16.12,37-2.36,13.31-14,25.38-27.59,27.95-15.32,2.9-27.95-2.05-37.14-14.66-12.83-17.57-5.92-43.4,14-52.49,3.39-1.54,4.65-3.4,5-7,3.8-39.24,19.94-72.61,48.5-99.77,6.72-6.4,14.34-11.84,21.56-17.72H152.6c0,3.34,0,6.88,0,10.42-.08,8.55-4.84,13.31-13.46,13.33-14.4,0-28.81-.26-43.2.12-7.45.2-12.93-2-16.13-8.91v-54.4c3.19-6.92,8.68-9.11,16.12-8.91,14.24.38,28.51.09,42.76.12,9.33,0,13.88,4.64,13.92,14.07,0,3.26,0,6.52,0,9.8h98.13c6.49-14.87,17.5-23.71,33.87-23.71s27.38,8.84,33.82,23.62H416.6c0-3.38,0-6.55,0-9.71,0-9.43,4.59-14.06,13.92-14.07,14.25,0,28.52.26,42.76-.12,7.44-.2,12.93,2,16.12,8.91Z" transform="translate(-79.8 -191.14)"/><path d="M211.8,600.86c-.93-.48-1.87-1-2.79-1.45-5.59-3-7.75-8.61-5.6-14.53,7.12-19.59,24.55-32.49,45.23-32.74q36-.43,71.92,0c20.68.25,38.11,13.15,45.23,32.74,2.49,6.86,0,11.67-8.39,16Z" transform="translate(-79.8 -191.14)"/><path d="M272.6,296.74v4.46c0,35.06-.05,70.11.08,105.17,0,3-1,4.37-3.62,5.59-12.88,5.91-21.29,19.93-20.37,33.48,1,15.42,10.51,28.09,24.27,32.5,14.69,4.71,29.71.56,39-10.79,15.39-18.71,9.27-45.49-12.72-55.71-.85-.39-1.67-.82-2.56-1.25V297.1c1.08,1.42,1.8,2.26,2.42,3.18q45,67.49,90,135c4.86,7.28,4.75,12.21-1.08,18.31a152,152,0,0,0-39.8,76.54c-.18.9-.5,1.77-.87,3a49,49,0,0,0-6.82-2.08c-7.21-1.14-14.44-2.77-21.69-2.89-22.38-.38-44.78-.08-67.17-.17a78.35,78.35,0,0,0-27.46,4.42,14.62,14.62,0,0,1-2,.48c-3-9.66-5.51-19.3-8.91-28.63a140.88,140.88,0,0,0-28.85-47c-1.17-1.28-2.39-2.52-3.54-3.82-5.33-6.06-5.72-10.91-1.22-17.68q19.35-29.13,38.77-58.21,25.49-38.24,51-76.46C270.28,299.92,271.13,298.8,272.6,296.74Z" transform="translate(-79.8 -191.14)"/><path d="M296.57,444.1a12,12,0,1,1-11.93-12A12.08,12.08,0,0,1,296.57,444.1Z" transform="translate(-79.8 -191.14)"/></svg>