<svg id="Layer_1" data-name="Layer 1" xmlns="http://www.w3.org/2000/svg" viewBox="0 0 296.5 409.49"><title>maps-and-flags</title><path d="M303.2,601.6c-3.43-2.83-7.37-5.23-10.22-8.55-34.21-39.79-65.6-81.66-91.79-127.21C186,439.36,172.63,412,164.37,382.39,152,338,157.72,296.08,183.43,257.85c24.43-36.31,58.9-58.08,102.47-64.16,42.61-5.95,81,4.93,114.29,32,29.33,23.91,46.79,55,52.75,92.6,4.63,29.22-.94,57-11,84.18-13.52,36.43-32.88,69.8-54.34,102a891.36,891.36,0,0,1-67.74,88.54c-2.86,3.32-6.79,5.72-10.22,8.55ZM306,415c40.4.7,74.22-32.55,75-73.71s-32.34-74.9-73.86-75.61c-40.68-.7-74.56,32.61-75.17,73.9C231.28,380.65,264.31,414.29,306,415Z" transform="translate(-158.09 -192.11)"/></svg>