<svg id="Layer_1" data-name="Layer 1" xmlns="http://www.w3.org/2000/svg" viewBox="0 0 409.96 410.88"><title>phone-call (1)</title><path d="M187,191.68c8.14,1.77,16,4.26,22.47,9.76.92.78,1.88,1.51,2.73,2.35,18.45,18.43,37,36.79,55.3,55.34,13.61,13.79,16,32.74,6.39,48.5a34.41,34.41,0,0,1-18.25,14.92c-11.32,4.07-20.06,11-24.93,22.27a34.27,34.27,0,0,0-1.58,23.09c5.5,20.65,16.85,38,30.65,53.84,16.56,19.05,35.5,35.19,58.3,46.37,9.52,4.66,19.33,8.73,30.32,7.2,14.54-2,25.63-9.1,31.35-23,3.75-9.1,8.3-17.27,17.14-22.45,14.37-8.41,32.48-7.32,44.79,3.9,11.26,10.25,21.81,21.29,32.58,32.08,9.82,9.83,20,19.38,29.15,29.82,11.53,13.16,11.87,33.77,1.69,48a68.49,68.49,0,0,1-7,8.25c-10.81,10.95-22,21.55-32.53,32.72-11.28,11.91-25.21,17.11-41.17,17.79-17.08.72-33.46-3.09-49.47-8.5-31.55-10.67-60-27.26-87-46.52A564.67,564.67,0,0,1,170.48,434.39c-24.83-31.88-46.1-65.9-59.23-104.44-5.71-16.77-9.57-33.93-8.67-51.86.79-15.7,5.92-29.36,17.62-40.41,9.81-9.27,19.34-18.86,28.66-28.64,8.2-8.61,17.07-15.73,29.31-17.36Z" transform="translate(-102.45 -191.68)"/></svg>