<svg id="Layer_1" data-name="Layer 1" xmlns="http://www.w3.org/2000/svg" viewBox="0 0 409.35 292.55"><title>Video editing</title><path d="M510.68,255.22v255a39.24,39.24,0,0,1-3.15,5.43c-5.92,7.29-15.53,7.39-22.72.21q-43.69-43.62-87.33-87.3c-1-1-2-1.87-3.67-3.36,0,8.25.13,15.67,0,23.09-.18,8.51.08,17.11-1.06,25.51-3.7,27.26-29.56,55-66,54.81-52.75-.31-105.5,0-158.25-.22a73.84,73.84,0,0,1-22-3.27,65.06,65.06,0,0,1-45.08-61.47c-.26-18.24-.07-36.5-.07-54.75q0-52.55,0-105.1c0-10,1.2-19.76,5.69-28.72,12.62-25.23,32.9-38.86,61.43-38.94,52.75-.14,105.5,0,158.25,0,1.47,0,2.93,0,4.4.12,33.57,1.8,60,27.36,62.24,60.92.83,12.34.33,24.76.43,37.15,0,1.38,0,2.77,0,5,1.77-1.66,2.83-2.61,3.83-3.61q43.29-43.19,86.62-86.31a21.09,21.09,0,0,1,8.21-5.3C500.34,241.73,506.75,245.91,510.68,255.22Z" transform="translate(-101.32 -236.07)"/></svg>