<svg id="Layer_1" data-name="Layer 1" xmlns="http://www.w3.org/2000/svg" viewBox="0 0 360.01 240.19"><title>web ana mobile ui</title><path d="M282.48,480.72H146.74c-12.69,0-20-7.31-20-20q0-81.93,0-163.87c0-12.89,7.27-20.1,20.29-20.1,74.12,0,148.24.18,222.36-.17,13-.06,23.43,8.33,21.08,23.89H378.75c0-1.8.05-3.52,0-5.23-.15-4.25-2.26-6.31-6.56-6.48-.88,0-1.75,0-2.63,0H147.92c-7.72,0-9.17,1.45-9.17,9.15V420.56H282.48Zm-24.07-24c2.11,0,4.23.09,6.34,0,3.64-.18,5.9-2.45,6-5.83a5.65,5.65,0,0,0-5.71-6.07c-4.22-.17-8.46-.18-12.67,0a5.65,5.65,0,0,0-5.75,6c0,3.47,2.19,5.69,5.85,5.86C254.43,456.82,256.42,456.74,258.41,456.74Z" transform="translate(-126.74 -276.58)"/><path d="M438.75,372.6H426.9V337.05H307V468.66h83.74c0,8.72.17,17.06-.05,25.38-.2,7.94.87,15.44,6.07,22.38-1.35.14-2.25.32-3.15.32q-39.74,0-79.47,0c-11.93,0-19.4-7.53-19.4-19.46q0-82.47,0-164.93c0-12.17,7.43-19.61,19.62-19.62q52.49,0,105,0c11.94,0,19.41,7.53,19.43,19.44C438.77,345.52,438.75,358.88,438.75,372.6ZM366.52,492.72h5.61a6,6,0,0,0,.74,0,6.13,6.13,0,0,0,5.77-5.81,5.94,5.94,0,0,0-5.82-6.09c-4-.17-8-.16-12,0a5.94,5.94,0,0,0-6,6,6.1,6.1,0,0,0,6,5.95C362.77,492.81,364.65,492.71,366.52,492.72Z" transform="translate(-126.74 -276.58)"/><path d="M486.74,451q0,23.06,0,46.09c0,12.2-7.42,19.67-19.54,19.7q-22.49.06-45,0c-12,0-19.46-7.51-19.46-19.39q0-46.65,0-93.3c0-11.7,7.54-19.27,19.16-19.29q22.84,0,45.71,0c11.44,0,19.06,7.57,19.1,19C486.77,419.48,486.74,435.22,486.74,451Zm-71.82,41.5h59.52V409H414.92Z" transform="translate(-126.74 -276.58)"/><path d="M282.83,492.72c-.59,8.72.52,16.52,5.9,23.63a22.18,22.18,0,0,1-2.71.39q-39.93,0-79.85,0c-4.84,0-7.44-2.13-7.48-5.95s2.67-6.64,7.33-5.9c8.44,1.33,13-3.33,16.86-9.51a5.16,5.16,0,0,1,5.12-2.71c17,.1,34,.05,51,.05Z" transform="translate(-126.74 -276.58)"/><path d="M150.75,384.76c0-5.75,0-11.5,0-17.25.05-4.2,2.3-6.73,5.87-6.79s6.06,2.47,6.09,6.58q.1,17.44,0,34.88c0,4.12-2.48,6.65-6.07,6.6s-5.84-2.57-5.88-6.77C150.7,396.26,150.75,390.51,150.75,384.76Z" transform="translate(-126.74 -276.58)"/><path d="M318.75,420.72c0-5.75-.05-11.5,0-17.25,0-4.18,2.33-6.71,5.91-6.74s6,2.5,6,6.63q.11,17.43,0,34.87c0,4.12-2.51,6.62-6.12,6.55s-5.79-2.59-5.84-6.81C318.71,432.22,318.75,426.47,318.75,420.72Z" transform="translate(-126.74 -276.58)"/><path d="M150.76,336.55c0-2-.1-4,0-6,.22-3.55,2.65-5.87,6-5.86a5.7,5.7,0,0,1,5.89,5.53c.21,4.35.22,8.72,0,13.06a5.71,5.71,0,0,1-5.94,5.49,5.78,5.78,0,0,1-5.9-5.53c-.17-2.23,0-4.48,0-6.72Z" transform="translate(-126.74 -276.58)"/><path d="M318.78,372.53c0-2.11-.15-4.24,0-6.34a5.75,5.75,0,0,1,6-5.45c3.34.1,5.56,2,5.8,5.19a89.28,89.28,0,0,1,0,13.78c-.26,3.2-2.52,5.05-5.88,5.08a5.72,5.72,0,0,1-5.87-5.55C318.64,377,318.78,374.77,318.78,372.53Z" transform="translate(-126.74 -276.58)"/></svg>